<mxfile host="app.diagrams.net" agent="Mozilla/5.0 (Windows NT 10.0; Win64; x64) AppleWebKit/537.36 (KHTML, like Gecko) Chrome/141.0.0.0 Safari/537.36 Edg/141.0.0.0" version="28.2.8">
  <diagram name="Page-1" id="9zcao2POnBsEuUNefQDV">
    <mxGraphModel dx="2836" dy="630" grid="1" gridSize="10" guides="1" tooltips="1" connect="1" arrows="1" fold="1" page="1" pageScale="1" pageWidth="827" pageHeight="1169" math="0" shadow="0">
      <root>
        <mxCell id="0" />
        <mxCell id="1" parent="0" />
        <mxCell id="Q81MRmjj6C1oXA7TaWA5-28" value="doctor" style="shape=table;startSize=30;container=1;collapsible=1;childLayout=tableLayout;fixedRows=1;rowLines=0;fontStyle=1;align=center;resizeLast=1;html=1;spacing=2;" parent="1" vertex="1">
          <mxGeometry x="-1090" y="20" width="203.81" height="250" as="geometry" />
        </mxCell>
        <mxCell id="Q81MRmjj6C1oXA7TaWA5-41" style="shape=tableRow;horizontal=0;startSize=0;swimlaneHead=0;swimlaneBody=0;fillColor=none;collapsible=0;dropTarget=0;points=[[0,0.5],[1,0.5]];portConstraint=eastwest;top=0;left=0;right=0;bottom=0;spacing=2;" parent="Q81MRmjj6C1oXA7TaWA5-28" vertex="1">
          <mxGeometry y="30" width="203.81" height="20" as="geometry" />
        </mxCell>
        <mxCell id="Q81MRmjj6C1oXA7TaWA5-42" value="FK" style="shape=partialRectangle;connectable=0;fillColor=none;top=0;left=0;bottom=0;right=0;editable=1;overflow=hidden;whiteSpace=wrap;html=1;spacing=2;" parent="Q81MRmjj6C1oXA7TaWA5-41" vertex="1">
          <mxGeometry width="30" height="20" as="geometry">
            <mxRectangle width="30" height="20" as="alternateBounds" />
          </mxGeometry>
        </mxCell>
        <mxCell id="Q81MRmjj6C1oXA7TaWA5-43" value="department_id: uuid" style="shape=partialRectangle;connectable=0;fillColor=none;top=0;left=0;bottom=0;right=0;align=left;spacingLeft=6;overflow=hidden;whiteSpace=wrap;html=1;spacing=2;" parent="Q81MRmjj6C1oXA7TaWA5-41" vertex="1">
          <mxGeometry x="30" width="173.81" height="20" as="geometry">
            <mxRectangle width="173.81" height="20" as="alternateBounds" />
          </mxGeometry>
        </mxCell>
        <mxCell id="EhNRVE4hJLv5afDKUUhh-156" value="" style="shape=tableRow;horizontal=0;startSize=0;swimlaneHead=0;swimlaneBody=0;fillColor=none;collapsible=0;dropTarget=0;points=[[0,0.5],[1,0.5]];portConstraint=eastwest;top=0;left=0;right=0;bottom=0;" vertex="1" parent="Q81MRmjj6C1oXA7TaWA5-28">
          <mxGeometry y="50" width="203.81" height="30" as="geometry" />
        </mxCell>
        <mxCell id="EhNRVE4hJLv5afDKUUhh-157" value="FK" style="shape=partialRectangle;connectable=0;fillColor=none;top=0;left=0;bottom=0;right=0;editable=1;overflow=hidden;" vertex="1" parent="EhNRVE4hJLv5afDKUUhh-156">
          <mxGeometry width="30" height="30" as="geometry">
            <mxRectangle width="30" height="30" as="alternateBounds" />
          </mxGeometry>
        </mxCell>
        <mxCell id="EhNRVE4hJLv5afDKUUhh-158" value="id: uuid" style="shape=partialRectangle;connectable=0;fillColor=none;top=0;left=0;bottom=0;right=0;align=left;spacingLeft=6;overflow=hidden;" vertex="1" parent="EhNRVE4hJLv5afDKUUhh-156">
          <mxGeometry x="30" width="173.81" height="30" as="geometry">
            <mxRectangle width="173.81" height="30" as="alternateBounds" />
          </mxGeometry>
        </mxCell>
        <mxCell id="Q81MRmjj6C1oXA7TaWA5-32" value="" style="shape=tableRow;horizontal=0;startSize=0;swimlaneHead=0;swimlaneBody=0;fillColor=none;collapsible=0;dropTarget=0;points=[[0,0.5],[1,0.5]];portConstraint=eastwest;top=0;left=0;right=0;bottom=0;spacing=2;" parent="Q81MRmjj6C1oXA7TaWA5-28" vertex="1">
          <mxGeometry y="80" width="203.81" height="20" as="geometry" />
        </mxCell>
        <mxCell id="Q81MRmjj6C1oXA7TaWA5-33" value="" style="shape=partialRectangle;connectable=0;fillColor=none;top=0;left=0;bottom=0;right=0;editable=1;overflow=hidden;whiteSpace=wrap;html=1;spacing=2;" parent="Q81MRmjj6C1oXA7TaWA5-32" vertex="1">
          <mxGeometry width="30" height="20" as="geometry">
            <mxRectangle width="30" height="20" as="alternateBounds" />
          </mxGeometry>
        </mxCell>
        <mxCell id="Q81MRmjj6C1oXA7TaWA5-34" value="first_name : varchar" style="shape=partialRectangle;connectable=0;fillColor=none;top=0;left=0;bottom=0;right=0;align=left;spacingLeft=6;overflow=hidden;whiteSpace=wrap;html=1;spacing=2;" parent="Q81MRmjj6C1oXA7TaWA5-32" vertex="1">
          <mxGeometry x="30" width="173.81" height="20" as="geometry">
            <mxRectangle width="173.81" height="20" as="alternateBounds" />
          </mxGeometry>
        </mxCell>
        <mxCell id="EhNRVE4hJLv5afDKUUhh-250" value="" style="shape=tableRow;horizontal=0;startSize=0;swimlaneHead=0;swimlaneBody=0;fillColor=none;collapsible=0;dropTarget=0;points=[[0,0.5],[1,0.5]];portConstraint=eastwest;top=0;left=0;right=0;bottom=0;" vertex="1" parent="Q81MRmjj6C1oXA7TaWA5-28">
          <mxGeometry y="100" width="203.81" height="30" as="geometry" />
        </mxCell>
        <mxCell id="EhNRVE4hJLv5afDKUUhh-251" value="" style="shape=partialRectangle;connectable=0;fillColor=none;top=0;left=0;bottom=0;right=0;editable=1;overflow=hidden;" vertex="1" parent="EhNRVE4hJLv5afDKUUhh-250">
          <mxGeometry width="30" height="30" as="geometry">
            <mxRectangle width="30" height="30" as="alternateBounds" />
          </mxGeometry>
        </mxCell>
        <mxCell id="EhNRVE4hJLv5afDKUUhh-252" value="last_name: varchar" style="shape=partialRectangle;connectable=0;fillColor=none;top=0;left=0;bottom=0;right=0;align=left;spacingLeft=6;overflow=hidden;" vertex="1" parent="EhNRVE4hJLv5afDKUUhh-250">
          <mxGeometry x="30" width="173.81" height="30" as="geometry">
            <mxRectangle width="173.81" height="30" as="alternateBounds" />
          </mxGeometry>
        </mxCell>
        <mxCell id="Q81MRmjj6C1oXA7TaWA5-35" style="shape=tableRow;horizontal=0;startSize=0;swimlaneHead=0;swimlaneBody=0;fillColor=none;collapsible=0;dropTarget=0;points=[[0,0.5],[1,0.5]];portConstraint=eastwest;top=0;left=0;right=0;bottom=0;spacing=2;" parent="Q81MRmjj6C1oXA7TaWA5-28" vertex="1">
          <mxGeometry y="130" width="203.81" height="20" as="geometry" />
        </mxCell>
        <mxCell id="Q81MRmjj6C1oXA7TaWA5-36" style="shape=partialRectangle;connectable=0;fillColor=none;top=0;left=0;bottom=0;right=0;editable=1;overflow=hidden;whiteSpace=wrap;html=1;spacing=2;" parent="Q81MRmjj6C1oXA7TaWA5-35" vertex="1">
          <mxGeometry width="30" height="20" as="geometry">
            <mxRectangle width="30" height="20" as="alternateBounds" />
          </mxGeometry>
        </mxCell>
        <mxCell id="Q81MRmjj6C1oXA7TaWA5-37" value="image: varchar" style="shape=partialRectangle;connectable=0;fillColor=none;top=0;left=0;bottom=0;right=0;align=left;spacingLeft=6;overflow=hidden;whiteSpace=wrap;html=1;spacing=2;" parent="Q81MRmjj6C1oXA7TaWA5-35" vertex="1">
          <mxGeometry x="30" width="173.81" height="20" as="geometry">
            <mxRectangle width="173.81" height="20" as="alternateBounds" />
          </mxGeometry>
        </mxCell>
        <mxCell id="Q81MRmjj6C1oXA7TaWA5-38" style="shape=tableRow;horizontal=0;startSize=0;swimlaneHead=0;swimlaneBody=0;fillColor=none;collapsible=0;dropTarget=0;points=[[0,0.5],[1,0.5]];portConstraint=eastwest;top=0;left=0;right=0;bottom=0;spacing=2;" parent="Q81MRmjj6C1oXA7TaWA5-28" vertex="1">
          <mxGeometry y="150" width="203.81" height="20" as="geometry" />
        </mxCell>
        <mxCell id="Q81MRmjj6C1oXA7TaWA5-39" style="shape=partialRectangle;connectable=0;fillColor=none;top=0;left=0;bottom=0;right=0;editable=1;overflow=hidden;whiteSpace=wrap;html=1;spacing=2;" parent="Q81MRmjj6C1oXA7TaWA5-38" vertex="1">
          <mxGeometry width="30" height="20" as="geometry">
            <mxRectangle width="30" height="20" as="alternateBounds" />
          </mxGeometry>
        </mxCell>
        <mxCell id="Q81MRmjj6C1oXA7TaWA5-40" value="date_of_birth: Date" style="shape=partialRectangle;connectable=0;fillColor=none;top=0;left=0;bottom=0;right=0;align=left;spacingLeft=6;overflow=hidden;whiteSpace=wrap;html=1;spacing=2;" parent="Q81MRmjj6C1oXA7TaWA5-38" vertex="1">
          <mxGeometry x="30" width="173.81" height="20" as="geometry">
            <mxRectangle width="173.81" height="20" as="alternateBounds" />
          </mxGeometry>
        </mxCell>
        <mxCell id="Q81MRmjj6C1oXA7TaWA5-44" style="shape=tableRow;horizontal=0;startSize=0;swimlaneHead=0;swimlaneBody=0;fillColor=none;collapsible=0;dropTarget=0;points=[[0,0.5],[1,0.5]];portConstraint=eastwest;top=0;left=0;right=0;bottom=0;spacing=2;" parent="Q81MRmjj6C1oXA7TaWA5-28" vertex="1">
          <mxGeometry y="170" width="203.81" height="20" as="geometry" />
        </mxCell>
        <mxCell id="Q81MRmjj6C1oXA7TaWA5-45" value="FK" style="shape=partialRectangle;connectable=0;fillColor=none;top=0;left=0;bottom=0;right=0;editable=1;overflow=hidden;whiteSpace=wrap;html=1;spacing=2;" parent="Q81MRmjj6C1oXA7TaWA5-44" vertex="1">
          <mxGeometry width="30" height="20" as="geometry">
            <mxRectangle width="30" height="20" as="alternateBounds" />
          </mxGeometry>
        </mxCell>
        <mxCell id="Q81MRmjj6C1oXA7TaWA5-46" value="specialization: uuid" style="shape=partialRectangle;connectable=0;fillColor=none;top=0;left=0;bottom=0;right=0;align=left;spacingLeft=6;overflow=hidden;whiteSpace=wrap;html=1;spacing=2;" parent="Q81MRmjj6C1oXA7TaWA5-44" vertex="1">
          <mxGeometry x="30" width="173.81" height="20" as="geometry">
            <mxRectangle width="173.81" height="20" as="alternateBounds" />
          </mxGeometry>
        </mxCell>
        <mxCell id="EhNRVE4hJLv5afDKUUhh-160" value="" style="shape=tableRow;horizontal=0;startSize=0;swimlaneHead=0;swimlaneBody=0;fillColor=none;collapsible=0;dropTarget=0;points=[[0,0.5],[1,0.5]];portConstraint=eastwest;top=0;left=0;right=0;bottom=0;" vertex="1" parent="Q81MRmjj6C1oXA7TaWA5-28">
          <mxGeometry y="190" width="203.81" height="30" as="geometry" />
        </mxCell>
        <mxCell id="EhNRVE4hJLv5afDKUUhh-161" value="FK" style="shape=partialRectangle;connectable=0;fillColor=none;top=0;left=0;bottom=0;right=0;editable=1;overflow=hidden;" vertex="1" parent="EhNRVE4hJLv5afDKUUhh-160">
          <mxGeometry width="30" height="30" as="geometry">
            <mxRectangle width="30" height="30" as="alternateBounds" />
          </mxGeometry>
        </mxCell>
        <mxCell id="EhNRVE4hJLv5afDKUUhh-162" value="staff_role_id" style="shape=partialRectangle;connectable=0;fillColor=none;top=0;left=0;bottom=0;right=0;align=left;spacingLeft=6;overflow=hidden;" vertex="1" parent="EhNRVE4hJLv5afDKUUhh-160">
          <mxGeometry x="30" width="173.81" height="30" as="geometry">
            <mxRectangle width="173.81" height="30" as="alternateBounds" />
          </mxGeometry>
        </mxCell>
        <mxCell id="EhNRVE4hJLv5afDKUUhh-164" value="" style="shape=tableRow;horizontal=0;startSize=0;swimlaneHead=0;swimlaneBody=0;fillColor=none;collapsible=0;dropTarget=0;points=[[0,0.5],[1,0.5]];portConstraint=eastwest;top=0;left=0;right=0;bottom=0;" vertex="1" parent="Q81MRmjj6C1oXA7TaWA5-28">
          <mxGeometry y="220" width="203.81" height="30" as="geometry" />
        </mxCell>
        <mxCell id="EhNRVE4hJLv5afDKUUhh-165" value="FK" style="shape=partialRectangle;connectable=0;fillColor=none;top=0;left=0;bottom=0;right=0;editable=1;overflow=hidden;" vertex="1" parent="EhNRVE4hJLv5afDKUUhh-164">
          <mxGeometry width="30" height="30" as="geometry">
            <mxRectangle width="30" height="30" as="alternateBounds" />
          </mxGeometry>
        </mxCell>
        <mxCell id="EhNRVE4hJLv5afDKUUhh-166" value="gender_id" style="shape=partialRectangle;connectable=0;fillColor=none;top=0;left=0;bottom=0;right=0;align=left;spacingLeft=6;overflow=hidden;" vertex="1" parent="EhNRVE4hJLv5afDKUUhh-164">
          <mxGeometry x="30" width="173.81" height="30" as="geometry">
            <mxRectangle width="173.81" height="30" as="alternateBounds" />
          </mxGeometry>
        </mxCell>
        <mxCell id="Q81MRmjj6C1oXA7TaWA5-50" value="appointment" style="shape=table;startSize=30;container=1;collapsible=1;childLayout=tableLayout;fixedRows=1;rowLines=0;fontStyle=1;align=center;resizeLast=1;html=1;spacing=2;" parent="1" vertex="1">
          <mxGeometry x="-606.19" y="40" width="203.80999999999995" height="130" as="geometry" />
        </mxCell>
        <mxCell id="Q81MRmjj6C1oXA7TaWA5-51" value="" style="shape=tableRow;horizontal=0;startSize=0;swimlaneHead=0;swimlaneBody=0;fillColor=none;collapsible=0;dropTarget=0;points=[[0,0.5],[1,0.5]];portConstraint=eastwest;top=0;left=0;right=0;bottom=1;spacing=2;" parent="Q81MRmjj6C1oXA7TaWA5-50" vertex="1">
          <mxGeometry y="30" width="203.80999999999995" height="20" as="geometry" />
        </mxCell>
        <mxCell id="Q81MRmjj6C1oXA7TaWA5-52" value="PK" style="shape=partialRectangle;connectable=0;fillColor=none;top=0;left=0;bottom=0;right=0;fontStyle=1;overflow=hidden;whiteSpace=wrap;html=1;spacing=2;" parent="Q81MRmjj6C1oXA7TaWA5-51" vertex="1">
          <mxGeometry width="30" height="20" as="geometry">
            <mxRectangle width="30" height="20" as="alternateBounds" />
          </mxGeometry>
        </mxCell>
        <mxCell id="Q81MRmjj6C1oXA7TaWA5-53" value="id: UniqueID" style="shape=partialRectangle;connectable=0;fillColor=none;top=0;left=0;bottom=0;right=0;align=left;spacingLeft=6;fontStyle=5;overflow=hidden;whiteSpace=wrap;html=1;spacing=2;" parent="Q81MRmjj6C1oXA7TaWA5-51" vertex="1">
          <mxGeometry x="30" width="173.80999999999995" height="20" as="geometry">
            <mxRectangle width="173.80999999999995" height="20" as="alternateBounds" />
          </mxGeometry>
        </mxCell>
        <mxCell id="Q81MRmjj6C1oXA7TaWA5-54" value="" style="shape=tableRow;horizontal=0;startSize=0;swimlaneHead=0;swimlaneBody=0;fillColor=none;collapsible=0;dropTarget=0;points=[[0,0.5],[1,0.5]];portConstraint=eastwest;top=0;left=0;right=0;bottom=0;spacing=2;" parent="Q81MRmjj6C1oXA7TaWA5-50" vertex="1">
          <mxGeometry y="50" width="203.80999999999995" height="20" as="geometry" />
        </mxCell>
        <mxCell id="Q81MRmjj6C1oXA7TaWA5-55" value="FK" style="shape=partialRectangle;connectable=0;fillColor=none;top=0;left=0;bottom=0;right=0;editable=1;overflow=hidden;whiteSpace=wrap;html=1;spacing=2;" parent="Q81MRmjj6C1oXA7TaWA5-54" vertex="1">
          <mxGeometry width="30" height="20" as="geometry">
            <mxRectangle width="30" height="20" as="alternateBounds" />
          </mxGeometry>
        </mxCell>
        <mxCell id="Q81MRmjj6C1oXA7TaWA5-56" value="doctor_id : uuid" style="shape=partialRectangle;connectable=0;fillColor=none;top=0;left=0;bottom=0;right=0;align=left;spacingLeft=6;overflow=hidden;whiteSpace=wrap;html=1;spacing=2;" parent="Q81MRmjj6C1oXA7TaWA5-54" vertex="1">
          <mxGeometry x="30" width="173.80999999999995" height="20" as="geometry">
            <mxRectangle width="173.80999999999995" height="20" as="alternateBounds" />
          </mxGeometry>
        </mxCell>
        <mxCell id="Q81MRmjj6C1oXA7TaWA5-57" style="shape=tableRow;horizontal=0;startSize=0;swimlaneHead=0;swimlaneBody=0;fillColor=none;collapsible=0;dropTarget=0;points=[[0,0.5],[1,0.5]];portConstraint=eastwest;top=0;left=0;right=0;bottom=0;spacing=2;" parent="Q81MRmjj6C1oXA7TaWA5-50" vertex="1">
          <mxGeometry y="70" width="203.80999999999995" height="20" as="geometry" />
        </mxCell>
        <mxCell id="Q81MRmjj6C1oXA7TaWA5-58" value="FK" style="shape=partialRectangle;connectable=0;fillColor=none;top=0;left=0;bottom=0;right=0;editable=1;overflow=hidden;whiteSpace=wrap;html=1;spacing=2;" parent="Q81MRmjj6C1oXA7TaWA5-57" vertex="1">
          <mxGeometry width="30" height="20" as="geometry">
            <mxRectangle width="30" height="20" as="alternateBounds" />
          </mxGeometry>
        </mxCell>
        <mxCell id="Q81MRmjj6C1oXA7TaWA5-59" value="clinic_id: uuid" style="shape=partialRectangle;connectable=0;fillColor=none;top=0;left=0;bottom=0;right=0;align=left;spacingLeft=6;overflow=hidden;whiteSpace=wrap;html=1;spacing=2;" parent="Q81MRmjj6C1oXA7TaWA5-57" vertex="1">
          <mxGeometry x="30" width="173.80999999999995" height="20" as="geometry">
            <mxRectangle width="173.80999999999995" height="20" as="alternateBounds" />
          </mxGeometry>
        </mxCell>
        <mxCell id="Q81MRmjj6C1oXA7TaWA5-69" value="" style="shape=tableRow;horizontal=0;startSize=0;swimlaneHead=0;swimlaneBody=0;fillColor=none;collapsible=0;dropTarget=0;points=[[0,0.5],[1,0.5]];portConstraint=eastwest;top=0;left=0;right=0;bottom=0;spacing=2;" parent="Q81MRmjj6C1oXA7TaWA5-50" vertex="1">
          <mxGeometry y="90" width="203.80999999999995" height="20" as="geometry" />
        </mxCell>
        <mxCell id="Q81MRmjj6C1oXA7TaWA5-70" value="FK" style="shape=partialRectangle;connectable=0;fillColor=none;top=0;left=0;bottom=0;right=0;editable=1;overflow=hidden;whiteSpace=wrap;html=1;spacing=2;" parent="Q81MRmjj6C1oXA7TaWA5-69" vertex="1">
          <mxGeometry width="30" height="20" as="geometry">
            <mxRectangle width="30" height="20" as="alternateBounds" />
          </mxGeometry>
        </mxCell>
        <mxCell id="Q81MRmjj6C1oXA7TaWA5-71" value="patient_id : uuid" style="shape=partialRectangle;connectable=0;fillColor=none;top=0;left=0;bottom=0;right=0;align=left;spacingLeft=6;overflow=hidden;whiteSpace=wrap;html=1;spacing=2;" parent="Q81MRmjj6C1oXA7TaWA5-69" vertex="1">
          <mxGeometry x="30" width="173.80999999999995" height="20" as="geometry">
            <mxRectangle width="173.80999999999995" height="20" as="alternateBounds" />
          </mxGeometry>
        </mxCell>
        <mxCell id="Q81MRmjj6C1oXA7TaWA5-60" style="shape=tableRow;horizontal=0;startSize=0;swimlaneHead=0;swimlaneBody=0;fillColor=none;collapsible=0;dropTarget=0;points=[[0,0.5],[1,0.5]];portConstraint=eastwest;top=0;left=0;right=0;bottom=0;spacing=2;" parent="Q81MRmjj6C1oXA7TaWA5-50" vertex="1">
          <mxGeometry y="110" width="203.80999999999995" height="20" as="geometry" />
        </mxCell>
        <mxCell id="Q81MRmjj6C1oXA7TaWA5-61" style="shape=partialRectangle;connectable=0;fillColor=none;top=0;left=0;bottom=0;right=0;editable=1;overflow=hidden;whiteSpace=wrap;html=1;spacing=2;" parent="Q81MRmjj6C1oXA7TaWA5-60" vertex="1">
          <mxGeometry width="30" height="20" as="geometry">
            <mxRectangle width="30" height="20" as="alternateBounds" />
          </mxGeometry>
        </mxCell>
        <mxCell id="Q81MRmjj6C1oXA7TaWA5-62" value="date: Timestamp" style="shape=partialRectangle;connectable=0;fillColor=none;top=0;left=0;bottom=0;right=0;align=left;spacingLeft=6;overflow=hidden;whiteSpace=wrap;html=1;spacing=2;" parent="Q81MRmjj6C1oXA7TaWA5-60" vertex="1">
          <mxGeometry x="30" width="173.80999999999995" height="20" as="geometry">
            <mxRectangle width="173.80999999999995" height="20" as="alternateBounds" />
          </mxGeometry>
        </mxCell>
        <mxCell id="Q81MRmjj6C1oXA7TaWA5-72" value="department" style="shape=table;startSize=30;container=1;collapsible=1;childLayout=tableLayout;fixedRows=1;rowLines=0;fontStyle=1;align=center;resizeLast=1;html=1;spacing=2;" parent="1" vertex="1">
          <mxGeometry x="-50" y="10" width="203.80999999999995" height="70" as="geometry" />
        </mxCell>
        <mxCell id="Q81MRmjj6C1oXA7TaWA5-73" value="" style="shape=tableRow;horizontal=0;startSize=0;swimlaneHead=0;swimlaneBody=0;fillColor=none;collapsible=0;dropTarget=0;points=[[0,0.5],[1,0.5]];portConstraint=eastwest;top=0;left=0;right=0;bottom=1;spacing=2;" parent="Q81MRmjj6C1oXA7TaWA5-72" vertex="1">
          <mxGeometry y="30" width="203.80999999999995" height="20" as="geometry" />
        </mxCell>
        <mxCell id="Q81MRmjj6C1oXA7TaWA5-74" value="PK" style="shape=partialRectangle;connectable=0;fillColor=none;top=0;left=0;bottom=0;right=0;fontStyle=1;overflow=hidden;whiteSpace=wrap;html=1;spacing=2;" parent="Q81MRmjj6C1oXA7TaWA5-73" vertex="1">
          <mxGeometry width="30" height="20" as="geometry">
            <mxRectangle width="30" height="20" as="alternateBounds" />
          </mxGeometry>
        </mxCell>
        <mxCell id="Q81MRmjj6C1oXA7TaWA5-75" value="id: uuid" style="shape=partialRectangle;connectable=0;fillColor=none;top=0;left=0;bottom=0;right=0;align=left;spacingLeft=6;fontStyle=5;overflow=hidden;whiteSpace=wrap;html=1;spacing=2;" parent="Q81MRmjj6C1oXA7TaWA5-73" vertex="1">
          <mxGeometry x="30" width="173.80999999999995" height="20" as="geometry">
            <mxRectangle width="173.80999999999995" height="20" as="alternateBounds" />
          </mxGeometry>
        </mxCell>
        <mxCell id="Q81MRmjj6C1oXA7TaWA5-76" value="" style="shape=tableRow;horizontal=0;startSize=0;swimlaneHead=0;swimlaneBody=0;fillColor=none;collapsible=0;dropTarget=0;points=[[0,0.5],[1,0.5]];portConstraint=eastwest;top=0;left=0;right=0;bottom=0;spacing=2;" parent="Q81MRmjj6C1oXA7TaWA5-72" vertex="1">
          <mxGeometry y="50" width="203.80999999999995" height="20" as="geometry" />
        </mxCell>
        <mxCell id="Q81MRmjj6C1oXA7TaWA5-77" value="" style="shape=partialRectangle;connectable=0;fillColor=none;top=0;left=0;bottom=0;right=0;editable=1;overflow=hidden;whiteSpace=wrap;html=1;spacing=2;" parent="Q81MRmjj6C1oXA7TaWA5-76" vertex="1">
          <mxGeometry width="30" height="20" as="geometry">
            <mxRectangle width="30" height="20" as="alternateBounds" />
          </mxGeometry>
        </mxCell>
        <mxCell id="Q81MRmjj6C1oXA7TaWA5-78" value="name: varchar" style="shape=partialRectangle;connectable=0;fillColor=none;top=0;left=0;bottom=0;right=0;align=left;spacingLeft=6;overflow=hidden;whiteSpace=wrap;html=1;spacing=2;" parent="Q81MRmjj6C1oXA7TaWA5-76" vertex="1">
          <mxGeometry x="30" width="173.80999999999995" height="20" as="geometry">
            <mxRectangle width="173.80999999999995" height="20" as="alternateBounds" />
          </mxGeometry>
        </mxCell>
        <mxCell id="Q81MRmjj6C1oXA7TaWA5-91" value="clinic" style="shape=table;startSize=30;container=1;collapsible=1;childLayout=tableLayout;fixedRows=1;rowLines=0;fontStyle=1;align=center;resizeLast=1;html=1;spacing=2;" parent="1" vertex="1">
          <mxGeometry x="-606.1800000000001" y="320" width="203.80999999999995" height="190" as="geometry" />
        </mxCell>
        <mxCell id="Q81MRmjj6C1oXA7TaWA5-92" value="" style="shape=tableRow;horizontal=0;startSize=0;swimlaneHead=0;swimlaneBody=0;fillColor=none;collapsible=0;dropTarget=0;points=[[0,0.5],[1,0.5]];portConstraint=eastwest;top=0;left=0;right=0;bottom=1;spacing=2;" parent="Q81MRmjj6C1oXA7TaWA5-91" vertex="1">
          <mxGeometry y="30" width="203.80999999999995" height="20" as="geometry" />
        </mxCell>
        <mxCell id="Q81MRmjj6C1oXA7TaWA5-93" value="PK" style="shape=partialRectangle;connectable=0;fillColor=none;top=0;left=0;bottom=0;right=0;fontStyle=1;overflow=hidden;whiteSpace=wrap;html=1;spacing=2;" parent="Q81MRmjj6C1oXA7TaWA5-92" vertex="1">
          <mxGeometry width="30" height="20" as="geometry">
            <mxRectangle width="30" height="20" as="alternateBounds" />
          </mxGeometry>
        </mxCell>
        <mxCell id="Q81MRmjj6C1oXA7TaWA5-94" value="id: uuid" style="shape=partialRectangle;connectable=0;fillColor=none;top=0;left=0;bottom=0;right=0;align=left;spacingLeft=6;fontStyle=5;overflow=hidden;whiteSpace=wrap;html=1;spacing=2;" parent="Q81MRmjj6C1oXA7TaWA5-92" vertex="1">
          <mxGeometry x="30" width="173.80999999999995" height="20" as="geometry">
            <mxRectangle width="173.80999999999995" height="20" as="alternateBounds" />
          </mxGeometry>
        </mxCell>
        <mxCell id="Q81MRmjj6C1oXA7TaWA5-95" value="" style="shape=tableRow;horizontal=0;startSize=0;swimlaneHead=0;swimlaneBody=0;fillColor=none;collapsible=0;dropTarget=0;points=[[0,0.5],[1,0.5]];portConstraint=eastwest;top=0;left=0;right=0;bottom=0;spacing=2;" parent="Q81MRmjj6C1oXA7TaWA5-91" vertex="1">
          <mxGeometry y="50" width="203.80999999999995" height="20" as="geometry" />
        </mxCell>
        <mxCell id="Q81MRmjj6C1oXA7TaWA5-96" value="" style="shape=partialRectangle;connectable=0;fillColor=none;top=0;left=0;bottom=0;right=0;editable=1;overflow=hidden;whiteSpace=wrap;html=1;spacing=2;" parent="Q81MRmjj6C1oXA7TaWA5-95" vertex="1">
          <mxGeometry width="30" height="20" as="geometry">
            <mxRectangle width="30" height="20" as="alternateBounds" />
          </mxGeometry>
        </mxCell>
        <mxCell id="Q81MRmjj6C1oXA7TaWA5-97" value="name : varchar" style="shape=partialRectangle;connectable=0;fillColor=none;top=0;left=0;bottom=0;right=0;align=left;spacingLeft=6;overflow=hidden;whiteSpace=wrap;html=1;spacing=2;" parent="Q81MRmjj6C1oXA7TaWA5-95" vertex="1">
          <mxGeometry x="30" width="173.80999999999995" height="20" as="geometry">
            <mxRectangle width="173.80999999999995" height="20" as="alternateBounds" />
          </mxGeometry>
        </mxCell>
        <mxCell id="Q81MRmjj6C1oXA7TaWA5-98" style="shape=tableRow;horizontal=0;startSize=0;swimlaneHead=0;swimlaneBody=0;fillColor=none;collapsible=0;dropTarget=0;points=[[0,0.5],[1,0.5]];portConstraint=eastwest;top=0;left=0;right=0;bottom=0;spacing=2;" parent="Q81MRmjj6C1oXA7TaWA5-91" vertex="1">
          <mxGeometry y="70" width="203.80999999999995" height="20" as="geometry" />
        </mxCell>
        <mxCell id="Q81MRmjj6C1oXA7TaWA5-99" style="shape=partialRectangle;connectable=0;fillColor=none;top=0;left=0;bottom=0;right=0;editable=1;overflow=hidden;whiteSpace=wrap;html=1;spacing=2;" parent="Q81MRmjj6C1oXA7TaWA5-98" vertex="1">
          <mxGeometry width="30" height="20" as="geometry">
            <mxRectangle width="30" height="20" as="alternateBounds" />
          </mxGeometry>
        </mxCell>
        <mxCell id="Q81MRmjj6C1oXA7TaWA5-100" value="street: varchar" style="shape=partialRectangle;connectable=0;fillColor=none;top=0;left=0;bottom=0;right=0;align=left;spacingLeft=6;overflow=hidden;whiteSpace=wrap;html=1;spacing=2;" parent="Q81MRmjj6C1oXA7TaWA5-98" vertex="1">
          <mxGeometry x="30" width="173.80999999999995" height="20" as="geometry">
            <mxRectangle width="173.80999999999995" height="20" as="alternateBounds" />
          </mxGeometry>
        </mxCell>
        <mxCell id="Q81MRmjj6C1oXA7TaWA5-101" style="shape=tableRow;horizontal=0;startSize=0;swimlaneHead=0;swimlaneBody=0;fillColor=none;collapsible=0;dropTarget=0;points=[[0,0.5],[1,0.5]];portConstraint=eastwest;top=0;left=0;right=0;bottom=0;spacing=2;" parent="Q81MRmjj6C1oXA7TaWA5-91" vertex="1">
          <mxGeometry y="90" width="203.80999999999995" height="20" as="geometry" />
        </mxCell>
        <mxCell id="Q81MRmjj6C1oXA7TaWA5-102" style="shape=partialRectangle;connectable=0;fillColor=none;top=0;left=0;bottom=0;right=0;editable=1;overflow=hidden;whiteSpace=wrap;html=1;spacing=2;" parent="Q81MRmjj6C1oXA7TaWA5-101" vertex="1">
          <mxGeometry width="30" height="20" as="geometry">
            <mxRectangle width="30" height="20" as="alternateBounds" />
          </mxGeometry>
        </mxCell>
        <mxCell id="Q81MRmjj6C1oXA7TaWA5-103" value="number: int" style="shape=partialRectangle;connectable=0;fillColor=none;top=0;left=0;bottom=0;right=0;align=left;spacingLeft=6;overflow=hidden;whiteSpace=wrap;html=1;spacing=2;" parent="Q81MRmjj6C1oXA7TaWA5-101" vertex="1">
          <mxGeometry x="30" width="173.80999999999995" height="20" as="geometry">
            <mxRectangle width="173.80999999999995" height="20" as="alternateBounds" />
          </mxGeometry>
        </mxCell>
        <mxCell id="Q81MRmjj6C1oXA7TaWA5-104" style="shape=tableRow;horizontal=0;startSize=0;swimlaneHead=0;swimlaneBody=0;fillColor=none;collapsible=0;dropTarget=0;points=[[0,0.5],[1,0.5]];portConstraint=eastwest;top=0;left=0;right=0;bottom=0;spacing=2;" parent="Q81MRmjj6C1oXA7TaWA5-91" vertex="1">
          <mxGeometry y="110" width="203.80999999999995" height="20" as="geometry" />
        </mxCell>
        <mxCell id="Q81MRmjj6C1oXA7TaWA5-105" style="shape=partialRectangle;connectable=0;fillColor=none;top=0;left=0;bottom=0;right=0;editable=1;overflow=hidden;whiteSpace=wrap;html=1;spacing=2;" parent="Q81MRmjj6C1oXA7TaWA5-104" vertex="1">
          <mxGeometry width="30" height="20" as="geometry">
            <mxRectangle width="30" height="20" as="alternateBounds" />
          </mxGeometry>
        </mxCell>
        <mxCell id="Q81MRmjj6C1oXA7TaWA5-106" value="number_extension: varchar" style="shape=partialRectangle;connectable=0;fillColor=none;top=0;left=0;bottom=0;right=0;align=left;spacingLeft=6;overflow=hidden;whiteSpace=wrap;html=1;spacing=2;" parent="Q81MRmjj6C1oXA7TaWA5-104" vertex="1">
          <mxGeometry x="30" width="173.80999999999995" height="20" as="geometry">
            <mxRectangle width="173.80999999999995" height="20" as="alternateBounds" />
          </mxGeometry>
        </mxCell>
        <mxCell id="Q81MRmjj6C1oXA7TaWA5-107" style="shape=tableRow;horizontal=0;startSize=0;swimlaneHead=0;swimlaneBody=0;fillColor=none;collapsible=0;dropTarget=0;points=[[0,0.5],[1,0.5]];portConstraint=eastwest;top=0;left=0;right=0;bottom=0;spacing=2;" parent="Q81MRmjj6C1oXA7TaWA5-91" vertex="1">
          <mxGeometry y="130" width="203.80999999999995" height="20" as="geometry" />
        </mxCell>
        <mxCell id="Q81MRmjj6C1oXA7TaWA5-108" style="shape=partialRectangle;connectable=0;fillColor=none;top=0;left=0;bottom=0;right=0;editable=1;overflow=hidden;whiteSpace=wrap;html=1;spacing=2;" parent="Q81MRmjj6C1oXA7TaWA5-107" vertex="1">
          <mxGeometry width="30" height="20" as="geometry">
            <mxRectangle width="30" height="20" as="alternateBounds" />
          </mxGeometry>
        </mxCell>
        <mxCell id="Q81MRmjj6C1oXA7TaWA5-109" value="city: varchar" style="shape=partialRectangle;connectable=0;fillColor=none;top=0;left=0;bottom=0;right=0;align=left;spacingLeft=6;overflow=hidden;whiteSpace=wrap;html=1;spacing=2;" parent="Q81MRmjj6C1oXA7TaWA5-107" vertex="1">
          <mxGeometry x="30" width="173.80999999999995" height="20" as="geometry">
            <mxRectangle width="173.80999999999995" height="20" as="alternateBounds" />
          </mxGeometry>
        </mxCell>
        <mxCell id="Q81MRmjj6C1oXA7TaWA5-110" style="shape=tableRow;horizontal=0;startSize=0;swimlaneHead=0;swimlaneBody=0;fillColor=none;collapsible=0;dropTarget=0;points=[[0,0.5],[1,0.5]];portConstraint=eastwest;top=0;left=0;right=0;bottom=0;spacing=2;" parent="Q81MRmjj6C1oXA7TaWA5-91" vertex="1">
          <mxGeometry y="150" width="203.80999999999995" height="20" as="geometry" />
        </mxCell>
        <mxCell id="Q81MRmjj6C1oXA7TaWA5-111" style="shape=partialRectangle;connectable=0;fillColor=none;top=0;left=0;bottom=0;right=0;editable=1;overflow=hidden;whiteSpace=wrap;html=1;spacing=2;" parent="Q81MRmjj6C1oXA7TaWA5-110" vertex="1">
          <mxGeometry width="30" height="20" as="geometry">
            <mxRectangle width="30" height="20" as="alternateBounds" />
          </mxGeometry>
        </mxCell>
        <mxCell id="Q81MRmjj6C1oXA7TaWA5-112" value="country: varchar" style="shape=partialRectangle;connectable=0;fillColor=none;top=0;left=0;bottom=0;right=0;align=left;spacingLeft=6;overflow=hidden;whiteSpace=wrap;html=1;spacing=2;" parent="Q81MRmjj6C1oXA7TaWA5-110" vertex="1">
          <mxGeometry x="30" width="173.80999999999995" height="20" as="geometry">
            <mxRectangle width="173.80999999999995" height="20" as="alternateBounds" />
          </mxGeometry>
        </mxCell>
        <mxCell id="Q81MRmjj6C1oXA7TaWA5-114" style="shape=tableRow;horizontal=0;startSize=0;swimlaneHead=0;swimlaneBody=0;fillColor=none;collapsible=0;dropTarget=0;points=[[0,0.5],[1,0.5]];portConstraint=eastwest;top=0;left=0;right=0;bottom=0;spacing=2;" parent="Q81MRmjj6C1oXA7TaWA5-91" vertex="1">
          <mxGeometry y="170" width="203.80999999999995" height="20" as="geometry" />
        </mxCell>
        <mxCell id="Q81MRmjj6C1oXA7TaWA5-115" style="shape=partialRectangle;connectable=0;fillColor=none;top=0;left=0;bottom=0;right=0;editable=1;overflow=hidden;whiteSpace=wrap;html=1;spacing=2;" parent="Q81MRmjj6C1oXA7TaWA5-114" vertex="1">
          <mxGeometry width="30" height="20" as="geometry">
            <mxRectangle width="30" height="20" as="alternateBounds" />
          </mxGeometry>
        </mxCell>
        <mxCell id="Q81MRmjj6C1oXA7TaWA5-116" value="zip_code: varchar" style="shape=partialRectangle;connectable=0;fillColor=none;top=0;left=0;bottom=0;right=0;align=left;spacingLeft=6;overflow=hidden;whiteSpace=wrap;html=1;spacing=2;" parent="Q81MRmjj6C1oXA7TaWA5-114" vertex="1">
          <mxGeometry x="30" width="173.80999999999995" height="20" as="geometry">
            <mxRectangle width="173.80999999999995" height="20" as="alternateBounds" />
          </mxGeometry>
        </mxCell>
        <mxCell id="Q81MRmjj6C1oXA7TaWA5-117" value="review" style="shape=table;startSize=30;container=1;collapsible=1;childLayout=tableLayout;fixedRows=1;rowLines=0;fontStyle=1;align=center;resizeLast=1;html=1;spacing=2;" parent="1" vertex="1">
          <mxGeometry x="-50" y="100" width="203.80999999999995" height="150" as="geometry" />
        </mxCell>
        <mxCell id="Q81MRmjj6C1oXA7TaWA5-118" value="" style="shape=tableRow;horizontal=0;startSize=0;swimlaneHead=0;swimlaneBody=0;fillColor=none;collapsible=0;dropTarget=0;points=[[0,0.5],[1,0.5]];portConstraint=eastwest;top=0;left=0;right=0;bottom=1;spacing=2;" parent="Q81MRmjj6C1oXA7TaWA5-117" vertex="1">
          <mxGeometry y="30" width="203.80999999999995" height="20" as="geometry" />
        </mxCell>
        <mxCell id="Q81MRmjj6C1oXA7TaWA5-119" value="PK" style="shape=partialRectangle;connectable=0;fillColor=none;top=0;left=0;bottom=0;right=0;fontStyle=1;overflow=hidden;whiteSpace=wrap;html=1;spacing=2;" parent="Q81MRmjj6C1oXA7TaWA5-118" vertex="1">
          <mxGeometry width="30" height="20" as="geometry">
            <mxRectangle width="30" height="20" as="alternateBounds" />
          </mxGeometry>
        </mxCell>
        <mxCell id="Q81MRmjj6C1oXA7TaWA5-120" value="id: UniqueID" style="shape=partialRectangle;connectable=0;fillColor=none;top=0;left=0;bottom=0;right=0;align=left;spacingLeft=6;fontStyle=5;overflow=hidden;whiteSpace=wrap;html=1;spacing=2;" parent="Q81MRmjj6C1oXA7TaWA5-118" vertex="1">
          <mxGeometry x="30" width="173.80999999999995" height="20" as="geometry">
            <mxRectangle width="173.80999999999995" height="20" as="alternateBounds" />
          </mxGeometry>
        </mxCell>
        <mxCell id="Q81MRmjj6C1oXA7TaWA5-124" value="" style="shape=tableRow;horizontal=0;startSize=0;swimlaneHead=0;swimlaneBody=0;fillColor=none;collapsible=0;dropTarget=0;points=[[0,0.5],[1,0.5]];portConstraint=eastwest;top=0;left=0;right=0;bottom=0;spacing=2;" parent="Q81MRmjj6C1oXA7TaWA5-117" vertex="1">
          <mxGeometry y="50" width="203.80999999999995" height="20" as="geometry" />
        </mxCell>
        <mxCell id="Q81MRmjj6C1oXA7TaWA5-125" value="FK" style="shape=partialRectangle;connectable=0;fillColor=none;top=0;left=0;bottom=0;right=0;editable=1;overflow=hidden;whiteSpace=wrap;html=1;spacing=2;" parent="Q81MRmjj6C1oXA7TaWA5-124" vertex="1">
          <mxGeometry width="30" height="20" as="geometry">
            <mxRectangle width="30" height="20" as="alternateBounds" />
          </mxGeometry>
        </mxCell>
        <mxCell id="Q81MRmjj6C1oXA7TaWA5-126" value="patient_id: uuid" style="shape=partialRectangle;connectable=0;fillColor=none;top=0;left=0;bottom=0;right=0;align=left;spacingLeft=6;overflow=hidden;whiteSpace=wrap;html=1;spacing=2;" parent="Q81MRmjj6C1oXA7TaWA5-124" vertex="1">
          <mxGeometry x="30" width="173.80999999999995" height="20" as="geometry">
            <mxRectangle width="173.80999999999995" height="20" as="alternateBounds" />
          </mxGeometry>
        </mxCell>
        <mxCell id="Q81MRmjj6C1oXA7TaWA5-127" value="" style="shape=tableRow;horizontal=0;startSize=0;swimlaneHead=0;swimlaneBody=0;fillColor=none;collapsible=0;dropTarget=0;points=[[0,0.5],[1,0.5]];portConstraint=eastwest;top=0;left=0;right=0;bottom=0;spacing=2;" parent="Q81MRmjj6C1oXA7TaWA5-117" vertex="1">
          <mxGeometry y="70" width="203.80999999999995" height="20" as="geometry" />
        </mxCell>
        <mxCell id="Q81MRmjj6C1oXA7TaWA5-128" value="FK" style="shape=partialRectangle;connectable=0;fillColor=none;top=0;left=0;bottom=0;right=0;editable=1;overflow=hidden;whiteSpace=wrap;html=1;spacing=2;" parent="Q81MRmjj6C1oXA7TaWA5-127" vertex="1">
          <mxGeometry width="30" height="20" as="geometry">
            <mxRectangle width="30" height="20" as="alternateBounds" />
          </mxGeometry>
        </mxCell>
        <mxCell id="Q81MRmjj6C1oXA7TaWA5-129" value="appointment_id: uuid" style="shape=partialRectangle;connectable=0;fillColor=none;top=0;left=0;bottom=0;right=0;align=left;spacingLeft=6;overflow=hidden;whiteSpace=wrap;html=1;spacing=2;" parent="Q81MRmjj6C1oXA7TaWA5-127" vertex="1">
          <mxGeometry x="30" width="173.80999999999995" height="20" as="geometry">
            <mxRectangle width="173.80999999999995" height="20" as="alternateBounds" />
          </mxGeometry>
        </mxCell>
        <mxCell id="Q81MRmjj6C1oXA7TaWA5-143" value="" style="shape=tableRow;horizontal=0;startSize=0;swimlaneHead=0;swimlaneBody=0;fillColor=none;collapsible=0;dropTarget=0;points=[[0,0.5],[1,0.5]];portConstraint=eastwest;top=0;left=0;right=0;bottom=0;spacing=2;" parent="Q81MRmjj6C1oXA7TaWA5-117" vertex="1">
          <mxGeometry y="90" width="203.80999999999995" height="20" as="geometry" />
        </mxCell>
        <mxCell id="Q81MRmjj6C1oXA7TaWA5-144" value="" style="shape=partialRectangle;connectable=0;fillColor=none;top=0;left=0;bottom=0;right=0;editable=1;overflow=hidden;whiteSpace=wrap;html=1;spacing=2;" parent="Q81MRmjj6C1oXA7TaWA5-143" vertex="1">
          <mxGeometry width="30" height="20" as="geometry">
            <mxRectangle width="30" height="20" as="alternateBounds" />
          </mxGeometry>
        </mxCell>
        <mxCell id="Q81MRmjj6C1oXA7TaWA5-145" value="rate: int" style="shape=partialRectangle;connectable=0;fillColor=none;top=0;left=0;bottom=0;right=0;align=left;spacingLeft=6;overflow=hidden;whiteSpace=wrap;html=1;spacing=2;" parent="Q81MRmjj6C1oXA7TaWA5-143" vertex="1">
          <mxGeometry x="30" width="173.80999999999995" height="20" as="geometry">
            <mxRectangle width="173.80999999999995" height="20" as="alternateBounds" />
          </mxGeometry>
        </mxCell>
        <mxCell id="Q81MRmjj6C1oXA7TaWA5-146" value="" style="shape=tableRow;horizontal=0;startSize=0;swimlaneHead=0;swimlaneBody=0;fillColor=none;collapsible=0;dropTarget=0;points=[[0,0.5],[1,0.5]];portConstraint=eastwest;top=0;left=0;right=0;bottom=0;spacing=2;" parent="Q81MRmjj6C1oXA7TaWA5-117" vertex="1">
          <mxGeometry y="110" width="203.80999999999995" height="20" as="geometry" />
        </mxCell>
        <mxCell id="Q81MRmjj6C1oXA7TaWA5-147" value="" style="shape=partialRectangle;connectable=0;fillColor=none;top=0;left=0;bottom=0;right=0;editable=1;overflow=hidden;whiteSpace=wrap;html=1;spacing=2;" parent="Q81MRmjj6C1oXA7TaWA5-146" vertex="1">
          <mxGeometry width="30" height="20" as="geometry">
            <mxRectangle width="30" height="20" as="alternateBounds" />
          </mxGeometry>
        </mxCell>
        <mxCell id="Q81MRmjj6C1oXA7TaWA5-148" value="note: varchar" style="shape=partialRectangle;connectable=0;fillColor=none;top=0;left=0;bottom=0;right=0;align=left;spacingLeft=6;overflow=hidden;whiteSpace=wrap;html=1;spacing=2;" parent="Q81MRmjj6C1oXA7TaWA5-146" vertex="1">
          <mxGeometry x="30" width="173.80999999999995" height="20" as="geometry">
            <mxRectangle width="173.80999999999995" height="20" as="alternateBounds" />
          </mxGeometry>
        </mxCell>
        <mxCell id="Q81MRmjj6C1oXA7TaWA5-199" value="" style="shape=tableRow;horizontal=0;startSize=0;swimlaneHead=0;swimlaneBody=0;fillColor=none;collapsible=0;dropTarget=0;points=[[0,0.5],[1,0.5]];portConstraint=eastwest;top=0;left=0;right=0;bottom=0;spacing=2;" parent="Q81MRmjj6C1oXA7TaWA5-117" vertex="1">
          <mxGeometry y="130" width="203.80999999999995" height="20" as="geometry" />
        </mxCell>
        <mxCell id="Q81MRmjj6C1oXA7TaWA5-200" value="" style="shape=partialRectangle;connectable=0;fillColor=none;top=0;left=0;bottom=0;right=0;editable=1;overflow=hidden;whiteSpace=wrap;html=1;spacing=2;" parent="Q81MRmjj6C1oXA7TaWA5-199" vertex="1">
          <mxGeometry width="30" height="20" as="geometry">
            <mxRectangle width="30" height="20" as="alternateBounds" />
          </mxGeometry>
        </mxCell>
        <mxCell id="Q81MRmjj6C1oXA7TaWA5-201" value="doctor: Doctor" style="shape=partialRectangle;connectable=0;fillColor=none;top=0;left=0;bottom=0;right=0;align=left;spacingLeft=6;overflow=hidden;whiteSpace=wrap;html=1;spacing=2;" parent="Q81MRmjj6C1oXA7TaWA5-199" vertex="1">
          <mxGeometry x="30" width="173.80999999999995" height="20" as="geometry">
            <mxRectangle width="173.80999999999995" height="20" as="alternateBounds" />
          </mxGeometry>
        </mxCell>
        <mxCell id="GOfsAT49laC1booXyE77-1" value="member_address" style="shape=table;startSize=30;container=1;collapsible=1;childLayout=tableLayout;fixedRows=1;rowLines=0;fontStyle=1;align=center;resizeLast=1;html=1;spacing=2;" parent="1" vertex="1">
          <mxGeometry x="-50" y="520" width="203.80999999999995" height="190" as="geometry" />
        </mxCell>
        <mxCell id="GOfsAT49laC1booXyE77-2" value="" style="shape=tableRow;horizontal=0;startSize=0;swimlaneHead=0;swimlaneBody=0;fillColor=none;collapsible=0;dropTarget=0;points=[[0,0.5],[1,0.5]];portConstraint=eastwest;top=0;left=0;right=0;bottom=1;spacing=2;" parent="GOfsAT49laC1booXyE77-1" vertex="1">
          <mxGeometry y="30" width="203.80999999999995" height="20" as="geometry" />
        </mxCell>
        <mxCell id="GOfsAT49laC1booXyE77-3" value="PK" style="shape=partialRectangle;connectable=0;fillColor=none;top=0;left=0;bottom=0;right=0;fontStyle=1;overflow=hidden;whiteSpace=wrap;html=1;spacing=2;" parent="GOfsAT49laC1booXyE77-2" vertex="1">
          <mxGeometry width="30" height="20" as="geometry">
            <mxRectangle width="30" height="20" as="alternateBounds" />
          </mxGeometry>
        </mxCell>
        <mxCell id="GOfsAT49laC1booXyE77-4" value="id: UniqueID" style="shape=partialRectangle;connectable=0;fillColor=none;top=0;left=0;bottom=0;right=0;align=left;spacingLeft=6;fontStyle=5;overflow=hidden;whiteSpace=wrap;html=1;spacing=2;" parent="GOfsAT49laC1booXyE77-2" vertex="1">
          <mxGeometry x="30" width="173.80999999999995" height="20" as="geometry">
            <mxRectangle width="173.80999999999995" height="20" as="alternateBounds" />
          </mxGeometry>
        </mxCell>
        <mxCell id="GOfsAT49laC1booXyE77-5" value="" style="shape=tableRow;horizontal=0;startSize=0;swimlaneHead=0;swimlaneBody=0;fillColor=none;collapsible=0;dropTarget=0;points=[[0,0.5],[1,0.5]];portConstraint=eastwest;top=0;left=0;right=0;bottom=0;spacing=2;" parent="GOfsAT49laC1booXyE77-1" vertex="1">
          <mxGeometry y="50" width="203.80999999999995" height="20" as="geometry" />
        </mxCell>
        <mxCell id="GOfsAT49laC1booXyE77-6" value="FK" style="shape=partialRectangle;connectable=0;fillColor=none;top=0;left=0;bottom=0;right=0;editable=1;overflow=hidden;whiteSpace=wrap;html=1;spacing=2;" parent="GOfsAT49laC1booXyE77-5" vertex="1">
          <mxGeometry width="30" height="20" as="geometry">
            <mxRectangle width="30" height="20" as="alternateBounds" />
          </mxGeometry>
        </mxCell>
        <mxCell id="GOfsAT49laC1booXyE77-7" value="user_id: uuid" style="shape=partialRectangle;connectable=0;fillColor=none;top=0;left=0;bottom=0;right=0;align=left;spacingLeft=6;overflow=hidden;whiteSpace=wrap;html=1;spacing=2;" parent="GOfsAT49laC1booXyE77-5" vertex="1">
          <mxGeometry x="30" width="173.80999999999995" height="20" as="geometry">
            <mxRectangle width="173.80999999999995" height="20" as="alternateBounds" />
          </mxGeometry>
        </mxCell>
        <mxCell id="GOfsAT49laC1booXyE77-8" value="" style="shape=tableRow;horizontal=0;startSize=0;swimlaneHead=0;swimlaneBody=0;fillColor=none;collapsible=0;dropTarget=0;points=[[0,0.5],[1,0.5]];portConstraint=eastwest;top=0;left=0;right=0;bottom=0;spacing=2;" parent="GOfsAT49laC1booXyE77-1" vertex="1">
          <mxGeometry y="70" width="203.80999999999995" height="20" as="geometry" />
        </mxCell>
        <mxCell id="GOfsAT49laC1booXyE77-9" value="" style="shape=partialRectangle;connectable=0;fillColor=none;top=0;left=0;bottom=0;right=0;editable=1;overflow=hidden;whiteSpace=wrap;html=1;spacing=2;" parent="GOfsAT49laC1booXyE77-8" vertex="1">
          <mxGeometry width="30" height="20" as="geometry">
            <mxRectangle width="30" height="20" as="alternateBounds" />
          </mxGeometry>
        </mxCell>
        <mxCell id="GOfsAT49laC1booXyE77-10" value="email:uuid" style="shape=partialRectangle;connectable=0;fillColor=none;top=0;left=0;bottom=0;right=0;align=left;spacingLeft=6;overflow=hidden;whiteSpace=wrap;html=1;spacing=2;" parent="GOfsAT49laC1booXyE77-8" vertex="1">
          <mxGeometry x="30" width="173.80999999999995" height="20" as="geometry">
            <mxRectangle width="173.80999999999995" height="20" as="alternateBounds" />
          </mxGeometry>
        </mxCell>
        <mxCell id="GOfsAT49laC1booXyE77-11" value="" style="shape=tableRow;horizontal=0;startSize=0;swimlaneHead=0;swimlaneBody=0;fillColor=none;collapsible=0;dropTarget=0;points=[[0,0.5],[1,0.5]];portConstraint=eastwest;top=0;left=0;right=0;bottom=0;spacing=2;" parent="GOfsAT49laC1booXyE77-1" vertex="1">
          <mxGeometry y="90" width="203.80999999999995" height="20" as="geometry" />
        </mxCell>
        <mxCell id="GOfsAT49laC1booXyE77-12" value="" style="shape=partialRectangle;connectable=0;fillColor=none;top=0;left=0;bottom=0;right=0;editable=1;overflow=hidden;whiteSpace=wrap;html=1;spacing=2;" parent="GOfsAT49laC1booXyE77-11" vertex="1">
          <mxGeometry width="30" height="20" as="geometry">
            <mxRectangle width="30" height="20" as="alternateBounds" />
          </mxGeometry>
        </mxCell>
        <mxCell id="GOfsAT49laC1booXyE77-13" value="phone:uuid" style="shape=partialRectangle;connectable=0;fillColor=none;top=0;left=0;bottom=0;right=0;align=left;spacingLeft=6;overflow=hidden;whiteSpace=wrap;html=1;spacing=2;" parent="GOfsAT49laC1booXyE77-11" vertex="1">
          <mxGeometry x="30" width="173.80999999999995" height="20" as="geometry">
            <mxRectangle width="173.80999999999995" height="20" as="alternateBounds" />
          </mxGeometry>
        </mxCell>
        <mxCell id="GOfsAT49laC1booXyE77-14" value="" style="shape=tableRow;horizontal=0;startSize=0;swimlaneHead=0;swimlaneBody=0;fillColor=none;collapsible=0;dropTarget=0;points=[[0,0.5],[1,0.5]];portConstraint=eastwest;top=0;left=0;right=0;bottom=0;spacing=2;" parent="GOfsAT49laC1booXyE77-1" vertex="1">
          <mxGeometry y="110" width="203.80999999999995" height="20" as="geometry" />
        </mxCell>
        <mxCell id="GOfsAT49laC1booXyE77-15" value="" style="shape=partialRectangle;connectable=0;fillColor=none;top=0;left=0;bottom=0;right=0;editable=1;overflow=hidden;whiteSpace=wrap;html=1;spacing=2;" parent="GOfsAT49laC1booXyE77-14" vertex="1">
          <mxGeometry width="30" height="20" as="geometry">
            <mxRectangle width="30" height="20" as="alternateBounds" />
          </mxGeometry>
        </mxCell>
        <mxCell id="GOfsAT49laC1booXyE77-16" value="street: varchar" style="shape=partialRectangle;connectable=0;fillColor=none;top=0;left=0;bottom=0;right=0;align=left;spacingLeft=6;overflow=hidden;whiteSpace=wrap;html=1;spacing=2;" parent="GOfsAT49laC1booXyE77-14" vertex="1">
          <mxGeometry x="30" width="173.80999999999995" height="20" as="geometry">
            <mxRectangle width="173.80999999999995" height="20" as="alternateBounds" />
          </mxGeometry>
        </mxCell>
        <mxCell id="GOfsAT49laC1booXyE77-17" value="" style="shape=tableRow;horizontal=0;startSize=0;swimlaneHead=0;swimlaneBody=0;fillColor=none;collapsible=0;dropTarget=0;points=[[0,0.5],[1,0.5]];portConstraint=eastwest;top=0;left=0;right=0;bottom=0;spacing=2;" parent="GOfsAT49laC1booXyE77-1" vertex="1">
          <mxGeometry y="130" width="203.80999999999995" height="20" as="geometry" />
        </mxCell>
        <mxCell id="GOfsAT49laC1booXyE77-18" value="" style="shape=partialRectangle;connectable=0;fillColor=none;top=0;left=0;bottom=0;right=0;editable=1;overflow=hidden;whiteSpace=wrap;html=1;spacing=2;" parent="GOfsAT49laC1booXyE77-17" vertex="1">
          <mxGeometry width="30" height="20" as="geometry">
            <mxRectangle width="30" height="20" as="alternateBounds" />
          </mxGeometry>
        </mxCell>
        <mxCell id="GOfsAT49laC1booXyE77-19" value="zip_code:varchar" style="shape=partialRectangle;connectable=0;fillColor=none;top=0;left=0;bottom=0;right=0;align=left;spacingLeft=6;overflow=hidden;whiteSpace=wrap;html=1;spacing=2;" parent="GOfsAT49laC1booXyE77-17" vertex="1">
          <mxGeometry x="30" width="173.80999999999995" height="20" as="geometry">
            <mxRectangle width="173.80999999999995" height="20" as="alternateBounds" />
          </mxGeometry>
        </mxCell>
        <mxCell id="GOfsAT49laC1booXyE77-20" value="" style="shape=tableRow;horizontal=0;startSize=0;swimlaneHead=0;swimlaneBody=0;fillColor=none;collapsible=0;dropTarget=0;points=[[0,0.5],[1,0.5]];portConstraint=eastwest;top=0;left=0;right=0;bottom=0;spacing=2;" parent="GOfsAT49laC1booXyE77-1" vertex="1">
          <mxGeometry y="150" width="203.80999999999995" height="20" as="geometry" />
        </mxCell>
        <mxCell id="GOfsAT49laC1booXyE77-21" value="" style="shape=partialRectangle;connectable=0;fillColor=none;top=0;left=0;bottom=0;right=0;editable=1;overflow=hidden;whiteSpace=wrap;html=1;spacing=2;" parent="GOfsAT49laC1booXyE77-20" vertex="1">
          <mxGeometry width="30" height="20" as="geometry">
            <mxRectangle width="30" height="20" as="alternateBounds" />
          </mxGeometry>
        </mxCell>
        <mxCell id="GOfsAT49laC1booXyE77-22" value="city:varchar" style="shape=partialRectangle;connectable=0;fillColor=none;top=0;left=0;bottom=0;right=0;align=left;spacingLeft=6;overflow=hidden;whiteSpace=wrap;html=1;spacing=2;" parent="GOfsAT49laC1booXyE77-20" vertex="1">
          <mxGeometry x="30" width="173.80999999999995" height="20" as="geometry">
            <mxRectangle width="173.80999999999995" height="20" as="alternateBounds" />
          </mxGeometry>
        </mxCell>
        <mxCell id="GOfsAT49laC1booXyE77-23" value="" style="shape=tableRow;horizontal=0;startSize=0;swimlaneHead=0;swimlaneBody=0;fillColor=none;collapsible=0;dropTarget=0;points=[[0,0.5],[1,0.5]];portConstraint=eastwest;top=0;left=0;right=0;bottom=0;spacing=2;" parent="GOfsAT49laC1booXyE77-1" vertex="1">
          <mxGeometry y="170" width="203.80999999999995" height="20" as="geometry" />
        </mxCell>
        <mxCell id="GOfsAT49laC1booXyE77-24" value="" style="shape=partialRectangle;connectable=0;fillColor=none;top=0;left=0;bottom=0;right=0;editable=1;overflow=hidden;whiteSpace=wrap;html=1;spacing=2;" parent="GOfsAT49laC1booXyE77-23" vertex="1">
          <mxGeometry width="30" height="20" as="geometry">
            <mxRectangle width="30" height="20" as="alternateBounds" />
          </mxGeometry>
        </mxCell>
        <mxCell id="GOfsAT49laC1booXyE77-25" value="country:varchar" style="shape=partialRectangle;connectable=0;fillColor=none;top=0;left=0;bottom=0;right=0;align=left;spacingLeft=6;overflow=hidden;whiteSpace=wrap;html=1;spacing=2;" parent="GOfsAT49laC1booXyE77-23" vertex="1">
          <mxGeometry x="30" width="173.80999999999995" height="20" as="geometry">
            <mxRectangle width="173.80999999999995" height="20" as="alternateBounds" />
          </mxGeometry>
        </mxCell>
        <mxCell id="GOfsAT49laC1booXyE77-32" value="member" style="shape=table;startSize=30;container=1;collapsible=1;childLayout=tableLayout;fixedRows=1;rowLines=0;fontStyle=1;align=center;resizeLast=1;html=1;spacing=2;" parent="1" vertex="1">
          <mxGeometry x="-40" y="270" width="203.80999999999995" height="230" as="geometry" />
        </mxCell>
        <mxCell id="GOfsAT49laC1booXyE77-33" value="" style="shape=tableRow;horizontal=0;startSize=0;swimlaneHead=0;swimlaneBody=0;fillColor=none;collapsible=0;dropTarget=0;points=[[0,0.5],[1,0.5]];portConstraint=eastwest;top=0;left=0;right=0;bottom=1;spacing=2;" parent="GOfsAT49laC1booXyE77-32" vertex="1">
          <mxGeometry y="30" width="203.80999999999995" height="20" as="geometry" />
        </mxCell>
        <mxCell id="GOfsAT49laC1booXyE77-34" value="PK" style="shape=partialRectangle;connectable=0;fillColor=none;top=0;left=0;bottom=0;right=0;fontStyle=1;overflow=hidden;whiteSpace=wrap;html=1;spacing=2;" parent="GOfsAT49laC1booXyE77-33" vertex="1">
          <mxGeometry width="30" height="20" as="geometry">
            <mxRectangle width="30" height="20" as="alternateBounds" />
          </mxGeometry>
        </mxCell>
        <mxCell id="GOfsAT49laC1booXyE77-35" value="id: uuid" style="shape=partialRectangle;connectable=0;fillColor=none;top=0;left=0;bottom=0;right=0;align=left;spacingLeft=6;fontStyle=5;overflow=hidden;whiteSpace=wrap;html=1;spacing=2;" parent="GOfsAT49laC1booXyE77-33" vertex="1">
          <mxGeometry x="30" width="173.80999999999995" height="20" as="geometry">
            <mxRectangle width="173.80999999999995" height="20" as="alternateBounds" />
          </mxGeometry>
        </mxCell>
        <mxCell id="GOfsAT49laC1booXyE77-36" value="" style="shape=tableRow;horizontal=0;startSize=0;swimlaneHead=0;swimlaneBody=0;fillColor=none;collapsible=0;dropTarget=0;points=[[0,0.5],[1,0.5]];portConstraint=eastwest;top=0;left=0;right=0;bottom=0;spacing=2;" parent="GOfsAT49laC1booXyE77-32" vertex="1">
          <mxGeometry y="50" width="203.80999999999995" height="20" as="geometry" />
        </mxCell>
        <mxCell id="GOfsAT49laC1booXyE77-37" value="" style="shape=partialRectangle;connectable=0;fillColor=none;top=0;left=0;bottom=0;right=0;editable=1;overflow=hidden;whiteSpace=wrap;html=1;spacing=2;" parent="GOfsAT49laC1booXyE77-36" vertex="1">
          <mxGeometry width="30" height="20" as="geometry">
            <mxRectangle width="30" height="20" as="alternateBounds" />
          </mxGeometry>
        </mxCell>
        <mxCell id="GOfsAT49laC1booXyE77-38" value="name : varchar" style="shape=partialRectangle;connectable=0;fillColor=none;top=0;left=0;bottom=0;right=0;align=left;spacingLeft=6;overflow=hidden;whiteSpace=wrap;html=1;spacing=2;" parent="GOfsAT49laC1booXyE77-36" vertex="1">
          <mxGeometry x="30" width="173.80999999999995" height="20" as="geometry">
            <mxRectangle width="173.80999999999995" height="20" as="alternateBounds" />
          </mxGeometry>
        </mxCell>
        <mxCell id="GOfsAT49laC1booXyE77-51" value="" style="shape=tableRow;horizontal=0;startSize=0;swimlaneHead=0;swimlaneBody=0;fillColor=none;collapsible=0;dropTarget=0;points=[[0,0.5],[1,0.5]];portConstraint=eastwest;top=0;left=0;right=0;bottom=0;spacing=2;" parent="GOfsAT49laC1booXyE77-32" vertex="1">
          <mxGeometry y="70" width="203.80999999999995" height="20" as="geometry" />
        </mxCell>
        <mxCell id="GOfsAT49laC1booXyE77-52" value="" style="shape=partialRectangle;connectable=0;fillColor=none;top=0;left=0;bottom=0;right=0;editable=1;overflow=hidden;whiteSpace=wrap;html=1;spacing=2;" parent="GOfsAT49laC1booXyE77-51" vertex="1">
          <mxGeometry width="30" height="20" as="geometry">
            <mxRectangle width="30" height="20" as="alternateBounds" />
          </mxGeometry>
        </mxCell>
        <mxCell id="GOfsAT49laC1booXyE77-53" value="email : varchar" style="shape=partialRectangle;connectable=0;fillColor=none;top=0;left=0;bottom=0;right=0;align=left;spacingLeft=6;overflow=hidden;whiteSpace=wrap;html=1;spacing=2;" parent="GOfsAT49laC1booXyE77-51" vertex="1">
          <mxGeometry x="30" width="173.80999999999995" height="20" as="geometry">
            <mxRectangle width="173.80999999999995" height="20" as="alternateBounds" />
          </mxGeometry>
        </mxCell>
        <mxCell id="GOfsAT49laC1booXyE77-54" value="" style="shape=tableRow;horizontal=0;startSize=0;swimlaneHead=0;swimlaneBody=0;fillColor=none;collapsible=0;dropTarget=0;points=[[0,0.5],[1,0.5]];portConstraint=eastwest;top=0;left=0;right=0;bottom=0;spacing=2;" parent="GOfsAT49laC1booXyE77-32" vertex="1">
          <mxGeometry y="90" width="203.80999999999995" height="20" as="geometry" />
        </mxCell>
        <mxCell id="GOfsAT49laC1booXyE77-55" value="" style="shape=partialRectangle;connectable=0;fillColor=none;top=0;left=0;bottom=0;right=0;editable=1;overflow=hidden;whiteSpace=wrap;html=1;spacing=2;" parent="GOfsAT49laC1booXyE77-54" vertex="1">
          <mxGeometry width="30" height="20" as="geometry">
            <mxRectangle width="30" height="20" as="alternateBounds" />
          </mxGeometry>
        </mxCell>
        <mxCell id="GOfsAT49laC1booXyE77-56" value="password : varchar" style="shape=partialRectangle;connectable=0;fillColor=none;top=0;left=0;bottom=0;right=0;align=left;spacingLeft=6;overflow=hidden;whiteSpace=wrap;html=1;spacing=2;" parent="GOfsAT49laC1booXyE77-54" vertex="1">
          <mxGeometry x="30" width="173.80999999999995" height="20" as="geometry">
            <mxRectangle width="173.80999999999995" height="20" as="alternateBounds" />
          </mxGeometry>
        </mxCell>
        <mxCell id="GOfsAT49laC1booXyE77-60" value="" style="shape=tableRow;horizontal=0;startSize=0;swimlaneHead=0;swimlaneBody=0;fillColor=none;collapsible=0;dropTarget=0;points=[[0,0.5],[1,0.5]];portConstraint=eastwest;top=0;left=0;right=0;bottom=0;spacing=2;" parent="GOfsAT49laC1booXyE77-32" vertex="1">
          <mxGeometry y="110" width="203.80999999999995" height="20" as="geometry" />
        </mxCell>
        <mxCell id="GOfsAT49laC1booXyE77-61" value="" style="shape=partialRectangle;connectable=0;fillColor=none;top=0;left=0;bottom=0;right=0;editable=1;overflow=hidden;whiteSpace=wrap;html=1;spacing=2;" parent="GOfsAT49laC1booXyE77-60" vertex="1">
          <mxGeometry width="30" height="20" as="geometry">
            <mxRectangle width="30" height="20" as="alternateBounds" />
          </mxGeometry>
        </mxCell>
        <mxCell id="GOfsAT49laC1booXyE77-62" value="phone_extension : varchar" style="shape=partialRectangle;connectable=0;fillColor=none;top=0;left=0;bottom=0;right=0;align=left;spacingLeft=6;overflow=hidden;whiteSpace=wrap;html=1;spacing=2;" parent="GOfsAT49laC1booXyE77-60" vertex="1">
          <mxGeometry x="30" width="173.80999999999995" height="20" as="geometry">
            <mxRectangle width="173.80999999999995" height="20" as="alternateBounds" />
          </mxGeometry>
        </mxCell>
        <mxCell id="GOfsAT49laC1booXyE77-57" value="" style="shape=tableRow;horizontal=0;startSize=0;swimlaneHead=0;swimlaneBody=0;fillColor=none;collapsible=0;dropTarget=0;points=[[0,0.5],[1,0.5]];portConstraint=eastwest;top=0;left=0;right=0;bottom=0;spacing=2;" parent="GOfsAT49laC1booXyE77-32" vertex="1">
          <mxGeometry y="130" width="203.80999999999995" height="20" as="geometry" />
        </mxCell>
        <mxCell id="GOfsAT49laC1booXyE77-58" value="" style="shape=partialRectangle;connectable=0;fillColor=none;top=0;left=0;bottom=0;right=0;editable=1;overflow=hidden;whiteSpace=wrap;html=1;spacing=2;" parent="GOfsAT49laC1booXyE77-57" vertex="1">
          <mxGeometry width="30" height="20" as="geometry">
            <mxRectangle width="30" height="20" as="alternateBounds" />
          </mxGeometry>
        </mxCell>
        <mxCell id="GOfsAT49laC1booXyE77-59" value="phone_number : decimal" style="shape=partialRectangle;connectable=0;fillColor=none;top=0;left=0;bottom=0;right=0;align=left;spacingLeft=6;overflow=hidden;whiteSpace=wrap;html=1;spacing=2;" parent="GOfsAT49laC1booXyE77-57" vertex="1">
          <mxGeometry x="30" width="173.80999999999995" height="20" as="geometry">
            <mxRectangle width="173.80999999999995" height="20" as="alternateBounds" />
          </mxGeometry>
        </mxCell>
        <mxCell id="GOfsAT49laC1booXyE77-39" style="shape=tableRow;horizontal=0;startSize=0;swimlaneHead=0;swimlaneBody=0;fillColor=none;collapsible=0;dropTarget=0;points=[[0,0.5],[1,0.5]];portConstraint=eastwest;top=0;left=0;right=0;bottom=0;spacing=2;" parent="GOfsAT49laC1booXyE77-32" vertex="1">
          <mxGeometry y="150" width="203.80999999999995" height="20" as="geometry" />
        </mxCell>
        <mxCell id="GOfsAT49laC1booXyE77-40" style="shape=partialRectangle;connectable=0;fillColor=none;top=0;left=0;bottom=0;right=0;editable=1;overflow=hidden;whiteSpace=wrap;html=1;spacing=2;" parent="GOfsAT49laC1booXyE77-39" vertex="1">
          <mxGeometry width="30" height="20" as="geometry">
            <mxRectangle width="30" height="20" as="alternateBounds" />
          </mxGeometry>
        </mxCell>
        <mxCell id="GOfsAT49laC1booXyE77-41" value="image: varchar" style="shape=partialRectangle;connectable=0;fillColor=none;top=0;left=0;bottom=0;right=0;align=left;spacingLeft=6;overflow=hidden;whiteSpace=wrap;html=1;spacing=2;" parent="GOfsAT49laC1booXyE77-39" vertex="1">
          <mxGeometry x="30" width="173.80999999999995" height="20" as="geometry">
            <mxRectangle width="173.80999999999995" height="20" as="alternateBounds" />
          </mxGeometry>
        </mxCell>
        <mxCell id="GOfsAT49laC1booXyE77-42" style="shape=tableRow;horizontal=0;startSize=0;swimlaneHead=0;swimlaneBody=0;fillColor=none;collapsible=0;dropTarget=0;points=[[0,0.5],[1,0.5]];portConstraint=eastwest;top=0;left=0;right=0;bottom=0;spacing=2;" parent="GOfsAT49laC1booXyE77-32" vertex="1">
          <mxGeometry y="170" width="203.80999999999995" height="20" as="geometry" />
        </mxCell>
        <mxCell id="GOfsAT49laC1booXyE77-43" style="shape=partialRectangle;connectable=0;fillColor=none;top=0;left=0;bottom=0;right=0;editable=1;overflow=hidden;whiteSpace=wrap;html=1;spacing=2;" parent="GOfsAT49laC1booXyE77-42" vertex="1">
          <mxGeometry width="30" height="20" as="geometry">
            <mxRectangle width="30" height="20" as="alternateBounds" />
          </mxGeometry>
        </mxCell>
        <mxCell id="GOfsAT49laC1booXyE77-44" value="date_of_birth: Date" style="shape=partialRectangle;connectable=0;fillColor=none;top=0;left=0;bottom=0;right=0;align=left;spacingLeft=6;overflow=hidden;whiteSpace=wrap;html=1;spacing=2;" parent="GOfsAT49laC1booXyE77-42" vertex="1">
          <mxGeometry x="30" width="173.80999999999995" height="20" as="geometry">
            <mxRectangle width="173.80999999999995" height="20" as="alternateBounds" />
          </mxGeometry>
        </mxCell>
        <mxCell id="GOfsAT49laC1booXyE77-45" style="shape=tableRow;horizontal=0;startSize=0;swimlaneHead=0;swimlaneBody=0;fillColor=none;collapsible=0;dropTarget=0;points=[[0,0.5],[1,0.5]];portConstraint=eastwest;top=0;left=0;right=0;bottom=0;spacing=2;" parent="GOfsAT49laC1booXyE77-32" vertex="1">
          <mxGeometry y="190" width="203.80999999999995" height="20" as="geometry" />
        </mxCell>
        <mxCell id="GOfsAT49laC1booXyE77-46" style="shape=partialRectangle;connectable=0;fillColor=none;top=0;left=0;bottom=0;right=0;editable=1;overflow=hidden;whiteSpace=wrap;html=1;spacing=2;" parent="GOfsAT49laC1booXyE77-45" vertex="1">
          <mxGeometry width="30" height="20" as="geometry">
            <mxRectangle width="30" height="20" as="alternateBounds" />
          </mxGeometry>
        </mxCell>
        <mxCell id="GOfsAT49laC1booXyE77-47" value="iban: varchar" style="shape=partialRectangle;connectable=0;fillColor=none;top=0;left=0;bottom=0;right=0;align=left;spacingLeft=6;overflow=hidden;whiteSpace=wrap;html=1;spacing=2;" parent="GOfsAT49laC1booXyE77-45" vertex="1">
          <mxGeometry x="30" width="173.80999999999995" height="20" as="geometry">
            <mxRectangle width="173.80999999999995" height="20" as="alternateBounds" />
          </mxGeometry>
        </mxCell>
        <mxCell id="GOfsAT49laC1booXyE77-48" style="shape=tableRow;horizontal=0;startSize=0;swimlaneHead=0;swimlaneBody=0;fillColor=none;collapsible=0;dropTarget=0;points=[[0,0.5],[1,0.5]];portConstraint=eastwest;top=0;left=0;right=0;bottom=0;spacing=2;" parent="GOfsAT49laC1booXyE77-32" vertex="1">
          <mxGeometry y="210" width="203.80999999999995" height="20" as="geometry" />
        </mxCell>
        <mxCell id="GOfsAT49laC1booXyE77-49" style="shape=partialRectangle;connectable=0;fillColor=none;top=0;left=0;bottom=0;right=0;editable=1;overflow=hidden;whiteSpace=wrap;html=1;spacing=2;" parent="GOfsAT49laC1booXyE77-48" vertex="1">
          <mxGeometry width="30" height="20" as="geometry">
            <mxRectangle width="30" height="20" as="alternateBounds" />
          </mxGeometry>
        </mxCell>
        <mxCell id="GOfsAT49laC1booXyE77-50" value="address_id: Address" style="shape=partialRectangle;connectable=0;fillColor=none;top=0;left=0;bottom=0;right=0;align=left;spacingLeft=6;overflow=hidden;whiteSpace=wrap;html=1;spacing=2;" parent="GOfsAT49laC1booXyE77-48" vertex="1">
          <mxGeometry x="30" width="173.80999999999995" height="20" as="geometry">
            <mxRectangle width="173.80999999999995" height="20" as="alternateBounds" />
          </mxGeometry>
        </mxCell>
        <mxCell id="GOfsAT49laC1booXyE77-63" style="edgeStyle=orthogonalEdgeStyle;rounded=0;orthogonalLoop=1;jettySize=auto;html=1;entryX=0;entryY=0.5;entryDx=0;entryDy=0;" parent="1" source="GOfsAT49laC1booXyE77-48" target="GOfsAT49laC1booXyE77-2" edge="1">
          <mxGeometry relative="1" as="geometry" />
        </mxCell>
        <mxCell id="EhNRVE4hJLv5afDKUUhh-1" value="staff_role" style="shape=table;startSize=30;container=1;collapsible=1;childLayout=tableLayout;fixedRows=1;rowLines=0;fontStyle=1;align=center;resizeLast=1;html=1;spacing=2;" vertex="1" parent="1">
          <mxGeometry x="-1350" y="20" width="203.80999999999995" height="100" as="geometry" />
        </mxCell>
        <mxCell id="EhNRVE4hJLv5afDKUUhh-2" value="" style="shape=tableRow;horizontal=0;startSize=0;swimlaneHead=0;swimlaneBody=0;fillColor=none;collapsible=0;dropTarget=0;points=[[0,0.5],[1,0.5]];portConstraint=eastwest;top=0;left=0;right=0;bottom=1;spacing=2;" vertex="1" parent="EhNRVE4hJLv5afDKUUhh-1">
          <mxGeometry y="30" width="203.80999999999995" height="20" as="geometry" />
        </mxCell>
        <mxCell id="EhNRVE4hJLv5afDKUUhh-3" value="PK" style="shape=partialRectangle;connectable=0;fillColor=none;top=0;left=0;bottom=0;right=0;fontStyle=1;overflow=hidden;whiteSpace=wrap;html=1;spacing=2;" vertex="1" parent="EhNRVE4hJLv5afDKUUhh-2">
          <mxGeometry width="30" height="20" as="geometry">
            <mxRectangle width="30" height="20" as="alternateBounds" />
          </mxGeometry>
        </mxCell>
        <mxCell id="EhNRVE4hJLv5afDKUUhh-4" value="id: UniqueID" style="shape=partialRectangle;connectable=0;fillColor=none;top=0;left=0;bottom=0;right=0;align=left;spacingLeft=6;fontStyle=5;overflow=hidden;whiteSpace=wrap;html=1;spacing=2;" vertex="1" parent="EhNRVE4hJLv5afDKUUhh-2">
          <mxGeometry x="30" width="173.80999999999995" height="20" as="geometry">
            <mxRectangle width="173.80999999999995" height="20" as="alternateBounds" />
          </mxGeometry>
        </mxCell>
        <mxCell id="EhNRVE4hJLv5afDKUUhh-8" value="" style="shape=tableRow;horizontal=0;startSize=0;swimlaneHead=0;swimlaneBody=0;fillColor=none;collapsible=0;dropTarget=0;points=[[0,0.5],[1,0.5]];portConstraint=eastwest;top=0;left=0;right=0;bottom=0;spacing=2;" vertex="1" parent="EhNRVE4hJLv5afDKUUhh-1">
          <mxGeometry y="50" width="203.80999999999995" height="20" as="geometry" />
        </mxCell>
        <mxCell id="EhNRVE4hJLv5afDKUUhh-9" value="" style="shape=partialRectangle;connectable=0;fillColor=none;top=0;left=0;bottom=0;right=0;editable=1;overflow=hidden;whiteSpace=wrap;html=1;spacing=2;" vertex="1" parent="EhNRVE4hJLv5afDKUUhh-8">
          <mxGeometry width="30" height="20" as="geometry">
            <mxRectangle width="30" height="20" as="alternateBounds" />
          </mxGeometry>
        </mxCell>
        <mxCell id="EhNRVE4hJLv5afDKUUhh-10" value="name: varchar" style="shape=partialRectangle;connectable=0;fillColor=none;top=0;left=0;bottom=0;right=0;align=left;spacingLeft=6;overflow=hidden;whiteSpace=wrap;html=1;spacing=2;" vertex="1" parent="EhNRVE4hJLv5afDKUUhh-8">
          <mxGeometry x="30" width="173.80999999999995" height="20" as="geometry">
            <mxRectangle width="173.80999999999995" height="20" as="alternateBounds" />
          </mxGeometry>
        </mxCell>
        <mxCell id="EhNRVE4hJLv5afDKUUhh-119" value="" style="shape=tableRow;horizontal=0;startSize=0;swimlaneHead=0;swimlaneBody=0;fillColor=none;collapsible=0;dropTarget=0;points=[[0,0.5],[1,0.5]];portConstraint=eastwest;top=0;left=0;right=0;bottom=0;" vertex="1" parent="EhNRVE4hJLv5afDKUUhh-1">
          <mxGeometry y="70" width="203.80999999999995" height="30" as="geometry" />
        </mxCell>
        <mxCell id="EhNRVE4hJLv5afDKUUhh-120" value="FK" style="shape=partialRectangle;connectable=0;fillColor=none;top=0;left=0;bottom=0;right=0;editable=1;overflow=hidden;" vertex="1" parent="EhNRVE4hJLv5afDKUUhh-119">
          <mxGeometry width="30" height="30" as="geometry">
            <mxRectangle width="30" height="30" as="alternateBounds" />
          </mxGeometry>
        </mxCell>
        <mxCell id="EhNRVE4hJLv5afDKUUhh-121" value="permission_id" style="shape=partialRectangle;connectable=0;fillColor=none;top=0;left=0;bottom=0;right=0;align=left;spacingLeft=6;overflow=hidden;" vertex="1" parent="EhNRVE4hJLv5afDKUUhh-119">
          <mxGeometry x="30" width="173.80999999999995" height="30" as="geometry">
            <mxRectangle width="173.80999999999995" height="30" as="alternateBounds" />
          </mxGeometry>
        </mxCell>
        <mxCell id="EhNRVE4hJLv5afDKUUhh-26" value="doctor_clinic" style="shape=table;startSize=30;container=1;collapsible=1;childLayout=tableLayout;fixedRows=1;rowLines=0;fontStyle=1;align=center;resizeLast=1;html=1;spacing=2;" vertex="1" parent="1">
          <mxGeometry x="-1078.09" y="310" width="180" height="70" as="geometry" />
        </mxCell>
        <mxCell id="EhNRVE4hJLv5afDKUUhh-30" value="" style="shape=tableRow;horizontal=0;startSize=0;swimlaneHead=0;swimlaneBody=0;fillColor=none;collapsible=0;dropTarget=0;points=[[0,0.5],[1,0.5]];portConstraint=eastwest;top=0;left=0;right=0;bottom=0;spacing=2;" vertex="1" parent="EhNRVE4hJLv5afDKUUhh-26">
          <mxGeometry y="30" width="180" height="20" as="geometry" />
        </mxCell>
        <mxCell id="EhNRVE4hJLv5afDKUUhh-31" value="FK" style="shape=partialRectangle;connectable=0;fillColor=none;top=0;left=0;bottom=0;right=0;editable=1;overflow=hidden;whiteSpace=wrap;html=1;spacing=2;" vertex="1" parent="EhNRVE4hJLv5afDKUUhh-30">
          <mxGeometry width="30" height="20" as="geometry">
            <mxRectangle width="30" height="20" as="alternateBounds" />
          </mxGeometry>
        </mxCell>
        <mxCell id="EhNRVE4hJLv5afDKUUhh-32" value="doctor_id:uuid" style="shape=partialRectangle;connectable=0;fillColor=none;top=0;left=0;bottom=0;right=0;align=left;spacingLeft=6;overflow=hidden;whiteSpace=wrap;html=1;spacing=2;" vertex="1" parent="EhNRVE4hJLv5afDKUUhh-30">
          <mxGeometry x="30" width="150" height="20" as="geometry">
            <mxRectangle width="150" height="20" as="alternateBounds" />
          </mxGeometry>
        </mxCell>
        <mxCell id="EhNRVE4hJLv5afDKUUhh-68" value="" style="shape=tableRow;horizontal=0;startSize=0;swimlaneHead=0;swimlaneBody=0;fillColor=none;collapsible=0;dropTarget=0;points=[[0,0.5],[1,0.5]];portConstraint=eastwest;top=0;left=0;right=0;bottom=0;spacing=2;" vertex="1" parent="EhNRVE4hJLv5afDKUUhh-26">
          <mxGeometry y="50" width="180" height="20" as="geometry" />
        </mxCell>
        <mxCell id="EhNRVE4hJLv5afDKUUhh-69" value="FK" style="shape=partialRectangle;connectable=0;fillColor=none;top=0;left=0;bottom=0;right=0;editable=1;overflow=hidden;whiteSpace=wrap;html=1;spacing=2;" vertex="1" parent="EhNRVE4hJLv5afDKUUhh-68">
          <mxGeometry width="30" height="20" as="geometry">
            <mxRectangle width="30" height="20" as="alternateBounds" />
          </mxGeometry>
        </mxCell>
        <mxCell id="EhNRVE4hJLv5afDKUUhh-70" value="clinic_id:uuid" style="shape=partialRectangle;connectable=0;fillColor=none;top=0;left=0;bottom=0;right=0;align=left;spacingLeft=6;overflow=hidden;whiteSpace=wrap;html=1;spacing=2;" vertex="1" parent="EhNRVE4hJLv5afDKUUhh-68">
          <mxGeometry x="30" width="150" height="20" as="geometry">
            <mxRectangle width="150" height="20" as="alternateBounds" />
          </mxGeometry>
        </mxCell>
        <mxCell id="EhNRVE4hJLv5afDKUUhh-40" value="" style="shape=tableRow;horizontal=0;startSize=0;swimlaneHead=0;swimlaneBody=0;fillColor=none;collapsible=0;dropTarget=0;points=[[0,0.5],[1,0.5]];portConstraint=eastwest;top=0;left=0;right=0;bottom=0;spacing=2;" vertex="1" parent="1">
          <mxGeometry x="-830" y="490" width="203.80999999999995" height="20" as="geometry" />
        </mxCell>
        <mxCell id="EhNRVE4hJLv5afDKUUhh-41" value="" style="shape=partialRectangle;connectable=0;fillColor=none;top=0;left=0;bottom=0;right=0;editable=1;overflow=hidden;whiteSpace=wrap;html=1;spacing=2;" vertex="1" parent="EhNRVE4hJLv5afDKUUhh-40">
          <mxGeometry width="30" height="20" as="geometry">
            <mxRectangle width="30" height="20" as="alternateBounds" />
          </mxGeometry>
        </mxCell>
        <mxCell id="EhNRVE4hJLv5afDKUUhh-86" value="permisions" style="shape=table;startSize=30;container=1;collapsible=1;childLayout=tableLayout;fixedRows=1;rowLines=0;fontStyle=1;align=center;resizeLast=1;html=1;" vertex="1" parent="1">
          <mxGeometry x="-1620" y="10" width="200" height="90" as="geometry" />
        </mxCell>
        <mxCell id="EhNRVE4hJLv5afDKUUhh-87" value="" style="shape=tableRow;horizontal=0;startSize=0;swimlaneHead=0;swimlaneBody=0;fillColor=none;collapsible=0;dropTarget=0;points=[[0,0.5],[1,0.5]];portConstraint=eastwest;top=0;left=0;right=0;bottom=1;" vertex="1" parent="EhNRVE4hJLv5afDKUUhh-86">
          <mxGeometry y="30" width="200" height="30" as="geometry" />
        </mxCell>
        <mxCell id="EhNRVE4hJLv5afDKUUhh-88" value="PK" style="shape=partialRectangle;connectable=0;fillColor=none;top=0;left=0;bottom=0;right=0;fontStyle=1;overflow=hidden;whiteSpace=wrap;html=1;" vertex="1" parent="EhNRVE4hJLv5afDKUUhh-87">
          <mxGeometry width="30" height="30" as="geometry">
            <mxRectangle width="30" height="30" as="alternateBounds" />
          </mxGeometry>
        </mxCell>
        <mxCell id="EhNRVE4hJLv5afDKUUhh-89" value="id" style="shape=partialRectangle;connectable=0;fillColor=none;top=0;left=0;bottom=0;right=0;align=left;spacingLeft=6;fontStyle=5;overflow=hidden;whiteSpace=wrap;html=1;" vertex="1" parent="EhNRVE4hJLv5afDKUUhh-87">
          <mxGeometry x="30" width="170" height="30" as="geometry">
            <mxRectangle width="170" height="30" as="alternateBounds" />
          </mxGeometry>
        </mxCell>
        <mxCell id="EhNRVE4hJLv5afDKUUhh-90" value="" style="shape=tableRow;horizontal=0;startSize=0;swimlaneHead=0;swimlaneBody=0;fillColor=none;collapsible=0;dropTarget=0;points=[[0,0.5],[1,0.5]];portConstraint=eastwest;top=0;left=0;right=0;bottom=0;" vertex="1" parent="EhNRVE4hJLv5afDKUUhh-86">
          <mxGeometry y="60" width="200" height="30" as="geometry" />
        </mxCell>
        <mxCell id="EhNRVE4hJLv5afDKUUhh-91" value="" style="shape=partialRectangle;connectable=0;fillColor=none;top=0;left=0;bottom=0;right=0;editable=1;overflow=hidden;whiteSpace=wrap;html=1;" vertex="1" parent="EhNRVE4hJLv5afDKUUhh-90">
          <mxGeometry width="30" height="30" as="geometry">
            <mxRectangle width="30" height="30" as="alternateBounds" />
          </mxGeometry>
        </mxCell>
        <mxCell id="EhNRVE4hJLv5afDKUUhh-92" value="name" style="shape=partialRectangle;connectable=0;fillColor=none;top=0;left=0;bottom=0;right=0;align=left;spacingLeft=6;overflow=hidden;whiteSpace=wrap;html=1;" vertex="1" parent="EhNRVE4hJLv5afDKUUhh-90">
          <mxGeometry x="30" width="170" height="30" as="geometry">
            <mxRectangle width="170" height="30" as="alternateBounds" />
          </mxGeometry>
        </mxCell>
        <mxCell id="EhNRVE4hJLv5afDKUUhh-106" value="patient_login_data" style="shape=table;startSize=30;container=1;collapsible=1;childLayout=tableLayout;fixedRows=1;rowLines=0;fontStyle=1;align=center;resizeLast=1;html=1;" vertex="1" parent="1">
          <mxGeometry x="-1330" y="140" width="180" height="120" as="geometry" />
        </mxCell>
        <mxCell id="EhNRVE4hJLv5afDKUUhh-107" value="" style="shape=tableRow;horizontal=0;startSize=0;swimlaneHead=0;swimlaneBody=0;fillColor=none;collapsible=0;dropTarget=0;points=[[0,0.5],[1,0.5]];portConstraint=eastwest;top=0;left=0;right=0;bottom=1;" vertex="1" parent="EhNRVE4hJLv5afDKUUhh-106">
          <mxGeometry y="30" width="180" height="30" as="geometry" />
        </mxCell>
        <mxCell id="EhNRVE4hJLv5afDKUUhh-108" value="PK" style="shape=partialRectangle;connectable=0;fillColor=none;top=0;left=0;bottom=0;right=0;fontStyle=1;overflow=hidden;whiteSpace=wrap;html=1;" vertex="1" parent="EhNRVE4hJLv5afDKUUhh-107">
          <mxGeometry width="30" height="30" as="geometry">
            <mxRectangle width="30" height="30" as="alternateBounds" />
          </mxGeometry>
        </mxCell>
        <mxCell id="EhNRVE4hJLv5afDKUUhh-109" value="id" style="shape=partialRectangle;connectable=0;fillColor=none;top=0;left=0;bottom=0;right=0;align=left;spacingLeft=6;fontStyle=5;overflow=hidden;whiteSpace=wrap;html=1;" vertex="1" parent="EhNRVE4hJLv5afDKUUhh-107">
          <mxGeometry x="30" width="150" height="30" as="geometry">
            <mxRectangle width="150" height="30" as="alternateBounds" />
          </mxGeometry>
        </mxCell>
        <mxCell id="EhNRVE4hJLv5afDKUUhh-110" value="" style="shape=tableRow;horizontal=0;startSize=0;swimlaneHead=0;swimlaneBody=0;fillColor=none;collapsible=0;dropTarget=0;points=[[0,0.5],[1,0.5]];portConstraint=eastwest;top=0;left=0;right=0;bottom=0;" vertex="1" parent="EhNRVE4hJLv5afDKUUhh-106">
          <mxGeometry y="60" width="180" height="30" as="geometry" />
        </mxCell>
        <mxCell id="EhNRVE4hJLv5afDKUUhh-111" value="" style="shape=partialRectangle;connectable=0;fillColor=none;top=0;left=0;bottom=0;right=0;editable=1;overflow=hidden;whiteSpace=wrap;html=1;" vertex="1" parent="EhNRVE4hJLv5afDKUUhh-110">
          <mxGeometry width="30" height="30" as="geometry">
            <mxRectangle width="30" height="30" as="alternateBounds" />
          </mxGeometry>
        </mxCell>
        <mxCell id="EhNRVE4hJLv5afDKUUhh-112" value="email_address: varchar" style="shape=partialRectangle;connectable=0;fillColor=none;top=0;left=0;bottom=0;right=0;align=left;spacingLeft=6;overflow=hidden;whiteSpace=wrap;html=1;" vertex="1" parent="EhNRVE4hJLv5afDKUUhh-110">
          <mxGeometry x="30" width="150" height="30" as="geometry">
            <mxRectangle width="150" height="30" as="alternateBounds" />
          </mxGeometry>
        </mxCell>
        <mxCell id="EhNRVE4hJLv5afDKUUhh-113" value="" style="shape=tableRow;horizontal=0;startSize=0;swimlaneHead=0;swimlaneBody=0;fillColor=none;collapsible=0;dropTarget=0;points=[[0,0.5],[1,0.5]];portConstraint=eastwest;top=0;left=0;right=0;bottom=0;" vertex="1" parent="EhNRVE4hJLv5afDKUUhh-106">
          <mxGeometry y="90" width="180" height="30" as="geometry" />
        </mxCell>
        <mxCell id="EhNRVE4hJLv5afDKUUhh-114" value="" style="shape=partialRectangle;connectable=0;fillColor=none;top=0;left=0;bottom=0;right=0;editable=1;overflow=hidden;whiteSpace=wrap;html=1;" vertex="1" parent="EhNRVE4hJLv5afDKUUhh-113">
          <mxGeometry width="30" height="30" as="geometry">
            <mxRectangle width="30" height="30" as="alternateBounds" />
          </mxGeometry>
        </mxCell>
        <mxCell id="EhNRVE4hJLv5afDKUUhh-115" value="password: varchar" style="shape=partialRectangle;connectable=0;fillColor=none;top=0;left=0;bottom=0;right=0;align=left;spacingLeft=6;overflow=hidden;whiteSpace=wrap;html=1;" vertex="1" parent="EhNRVE4hJLv5afDKUUhh-113">
          <mxGeometry x="30" width="150" height="30" as="geometry">
            <mxRectangle width="150" height="30" as="alternateBounds" />
          </mxGeometry>
        </mxCell>
        <mxCell id="EhNRVE4hJLv5afDKUUhh-122" style="edgeStyle=orthogonalEdgeStyle;rounded=0;orthogonalLoop=1;jettySize=auto;html=1;entryX=0;entryY=0.5;entryDx=0;entryDy=0;" edge="1" parent="1" source="EhNRVE4hJLv5afDKUUhh-87" target="EhNRVE4hJLv5afDKUUhh-119">
          <mxGeometry relative="1" as="geometry" />
        </mxCell>
        <mxCell id="Q81MRmjj6C1oXA7TaWA5-3" value="patient" style="shape=table;startSize=20;container=1;collapsible=1;childLayout=tableLayout;fixedRows=1;rowLines=0;fontStyle=1;align=center;resizeLast=1;html=1;spacing=2;" parent="1" vertex="1">
          <mxGeometry x="-1600" y="150" width="203.81" height="190" as="geometry" />
        </mxCell>
        <mxCell id="EhNRVE4hJLv5afDKUUhh-142" value="" style="shape=tableRow;horizontal=0;startSize=0;swimlaneHead=0;swimlaneBody=0;fillColor=none;collapsible=0;dropTarget=0;points=[[0,0.5],[1,0.5]];portConstraint=eastwest;top=0;left=0;right=0;bottom=0;" vertex="1" parent="Q81MRmjj6C1oXA7TaWA5-3">
          <mxGeometry y="20" width="203.81" height="30" as="geometry" />
        </mxCell>
        <mxCell id="EhNRVE4hJLv5afDKUUhh-143" value="FK" style="shape=partialRectangle;connectable=0;fillColor=none;top=0;left=0;bottom=0;right=0;editable=1;overflow=hidden;" vertex="1" parent="EhNRVE4hJLv5afDKUUhh-142">
          <mxGeometry width="22.190000000000055" height="30" as="geometry">
            <mxRectangle width="22.190000000000055" height="30" as="alternateBounds" />
          </mxGeometry>
        </mxCell>
        <mxCell id="EhNRVE4hJLv5afDKUUhh-144" value="id: UUID" style="shape=partialRectangle;connectable=0;fillColor=none;top=0;left=0;bottom=0;right=0;align=left;spacingLeft=6;overflow=hidden;" vertex="1" parent="EhNRVE4hJLv5afDKUUhh-142">
          <mxGeometry x="22.190000000000055" width="181.61999999999995" height="30" as="geometry">
            <mxRectangle width="181.61999999999995" height="30" as="alternateBounds" />
          </mxGeometry>
        </mxCell>
        <mxCell id="Q81MRmjj6C1oXA7TaWA5-10" value="" style="shape=tableRow;horizontal=0;startSize=0;swimlaneHead=0;swimlaneBody=0;fillColor=none;collapsible=0;dropTarget=0;points=[[0,0.5],[1,0.5]];portConstraint=eastwest;top=0;left=0;right=0;bottom=0;spacing=2;" parent="Q81MRmjj6C1oXA7TaWA5-3" vertex="1">
          <mxGeometry y="50" width="203.81" height="20" as="geometry" />
        </mxCell>
        <mxCell id="Q81MRmjj6C1oXA7TaWA5-11" value="" style="shape=partialRectangle;connectable=0;fillColor=none;top=0;left=0;bottom=0;right=0;editable=1;overflow=hidden;whiteSpace=wrap;html=1;spacing=2;" parent="Q81MRmjj6C1oXA7TaWA5-10" vertex="1">
          <mxGeometry width="22.190000000000055" height="20" as="geometry">
            <mxRectangle width="22.190000000000055" height="20" as="alternateBounds" />
          </mxGeometry>
        </mxCell>
        <mxCell id="Q81MRmjj6C1oXA7TaWA5-12" value="first_name : varchar" style="shape=partialRectangle;connectable=0;fillColor=none;top=0;left=0;bottom=0;right=0;align=left;spacingLeft=6;overflow=hidden;whiteSpace=wrap;html=1;spacing=2;" parent="Q81MRmjj6C1oXA7TaWA5-10" vertex="1">
          <mxGeometry x="22.190000000000055" width="181.61999999999995" height="20" as="geometry">
            <mxRectangle width="181.61999999999995" height="20" as="alternateBounds" />
          </mxGeometry>
        </mxCell>
        <mxCell id="EhNRVE4hJLv5afDKUUhh-103" value="" style="shape=tableRow;horizontal=0;startSize=0;swimlaneHead=0;swimlaneBody=0;fillColor=none;collapsible=0;dropTarget=0;points=[[0,0.5],[1,0.5]];portConstraint=eastwest;top=0;left=0;right=0;bottom=0;" vertex="1" parent="Q81MRmjj6C1oXA7TaWA5-3">
          <mxGeometry y="70" width="203.81" height="30" as="geometry" />
        </mxCell>
        <mxCell id="EhNRVE4hJLv5afDKUUhh-104" value="" style="shape=partialRectangle;connectable=0;fillColor=none;top=0;left=0;bottom=0;right=0;editable=1;overflow=hidden;" vertex="1" parent="EhNRVE4hJLv5afDKUUhh-103">
          <mxGeometry width="22.190000000000055" height="30" as="geometry">
            <mxRectangle width="22.190000000000055" height="30" as="alternateBounds" />
          </mxGeometry>
        </mxCell>
        <mxCell id="EhNRVE4hJLv5afDKUUhh-105" value="last_name: varchar" style="shape=partialRectangle;connectable=0;fillColor=none;top=0;left=0;bottom=0;right=0;align=left;spacingLeft=6;overflow=hidden;" vertex="1" parent="EhNRVE4hJLv5afDKUUhh-103">
          <mxGeometry x="22.190000000000055" width="181.61999999999995" height="30" as="geometry">
            <mxRectangle width="181.61999999999995" height="30" as="alternateBounds" />
          </mxGeometry>
        </mxCell>
        <mxCell id="Q81MRmjj6C1oXA7TaWA5-13" style="shape=tableRow;horizontal=0;startSize=0;swimlaneHead=0;swimlaneBody=0;fillColor=none;collapsible=0;dropTarget=0;points=[[0,0.5],[1,0.5]];portConstraint=eastwest;top=0;left=0;right=0;bottom=0;spacing=2;" parent="Q81MRmjj6C1oXA7TaWA5-3" vertex="1">
          <mxGeometry y="100" width="203.81" height="20" as="geometry" />
        </mxCell>
        <mxCell id="Q81MRmjj6C1oXA7TaWA5-14" style="shape=partialRectangle;connectable=0;fillColor=none;top=0;left=0;bottom=0;right=0;editable=1;overflow=hidden;whiteSpace=wrap;html=1;spacing=2;" parent="Q81MRmjj6C1oXA7TaWA5-13" vertex="1">
          <mxGeometry width="22.190000000000055" height="20" as="geometry">
            <mxRectangle width="22.190000000000055" height="20" as="alternateBounds" />
          </mxGeometry>
        </mxCell>
        <mxCell id="Q81MRmjj6C1oXA7TaWA5-15" value="image: varchar" style="shape=partialRectangle;connectable=0;fillColor=none;top=0;left=0;bottom=0;right=0;align=left;spacingLeft=6;overflow=hidden;whiteSpace=wrap;html=1;spacing=2;" parent="Q81MRmjj6C1oXA7TaWA5-13" vertex="1">
          <mxGeometry x="22.190000000000055" width="181.61999999999995" height="20" as="geometry">
            <mxRectangle width="181.61999999999995" height="20" as="alternateBounds" />
          </mxGeometry>
        </mxCell>
        <mxCell id="Q81MRmjj6C1oXA7TaWA5-16" style="shape=tableRow;horizontal=0;startSize=0;swimlaneHead=0;swimlaneBody=0;fillColor=none;collapsible=0;dropTarget=0;points=[[0,0.5],[1,0.5]];portConstraint=eastwest;top=0;left=0;right=0;bottom=0;spacing=2;" parent="Q81MRmjj6C1oXA7TaWA5-3" vertex="1">
          <mxGeometry y="120" width="203.81" height="20" as="geometry" />
        </mxCell>
        <mxCell id="Q81MRmjj6C1oXA7TaWA5-17" style="shape=partialRectangle;connectable=0;fillColor=none;top=0;left=0;bottom=0;right=0;editable=1;overflow=hidden;whiteSpace=wrap;html=1;spacing=2;" parent="Q81MRmjj6C1oXA7TaWA5-16" vertex="1">
          <mxGeometry width="22.190000000000055" height="20" as="geometry">
            <mxRectangle width="22.190000000000055" height="20" as="alternateBounds" />
          </mxGeometry>
        </mxCell>
        <mxCell id="Q81MRmjj6C1oXA7TaWA5-18" value="date_of_birth: Date" style="shape=partialRectangle;connectable=0;fillColor=none;top=0;left=0;bottom=0;right=0;align=left;spacingLeft=6;overflow=hidden;whiteSpace=wrap;html=1;spacing=2;" parent="Q81MRmjj6C1oXA7TaWA5-16" vertex="1">
          <mxGeometry x="22.190000000000055" width="181.61999999999995" height="20" as="geometry">
            <mxRectangle width="181.61999999999995" height="20" as="alternateBounds" />
          </mxGeometry>
        </mxCell>
        <mxCell id="Q81MRmjj6C1oXA7TaWA5-22" style="shape=tableRow;horizontal=0;startSize=0;swimlaneHead=0;swimlaneBody=0;fillColor=none;collapsible=0;dropTarget=0;points=[[0,0.5],[1,0.5]];portConstraint=eastwest;top=0;left=0;right=0;bottom=0;spacing=2;" parent="Q81MRmjj6C1oXA7TaWA5-3" vertex="1">
          <mxGeometry y="140" width="203.81" height="20" as="geometry" />
        </mxCell>
        <mxCell id="Q81MRmjj6C1oXA7TaWA5-23" style="shape=partialRectangle;connectable=0;fillColor=none;top=0;left=0;bottom=0;right=0;editable=1;overflow=hidden;whiteSpace=wrap;html=1;spacing=2;" parent="Q81MRmjj6C1oXA7TaWA5-22" vertex="1">
          <mxGeometry width="22.190000000000055" height="20" as="geometry">
            <mxRectangle width="22.190000000000055" height="20" as="alternateBounds" />
          </mxGeometry>
        </mxCell>
        <mxCell id="Q81MRmjj6C1oXA7TaWA5-24" value="phone_number : varchar" style="shape=partialRectangle;connectable=0;fillColor=none;top=0;left=0;bottom=0;right=0;align=left;spacingLeft=6;overflow=hidden;whiteSpace=wrap;html=1;spacing=2;" parent="Q81MRmjj6C1oXA7TaWA5-22" vertex="1">
          <mxGeometry x="22.190000000000055" width="181.61999999999995" height="20" as="geometry">
            <mxRectangle width="181.61999999999995" height="20" as="alternateBounds" />
          </mxGeometry>
        </mxCell>
        <mxCell id="EhNRVE4hJLv5afDKUUhh-123" value="" style="shape=tableRow;horizontal=0;startSize=0;swimlaneHead=0;swimlaneBody=0;fillColor=none;collapsible=0;dropTarget=0;points=[[0,0.5],[1,0.5]];portConstraint=eastwest;top=0;left=0;right=0;bottom=0;" vertex="1" parent="Q81MRmjj6C1oXA7TaWA5-3">
          <mxGeometry y="160" width="203.81" height="30" as="geometry" />
        </mxCell>
        <mxCell id="EhNRVE4hJLv5afDKUUhh-124" value="FK" style="shape=partialRectangle;connectable=0;fillColor=none;top=0;left=0;bottom=0;right=0;editable=1;overflow=hidden;" vertex="1" parent="EhNRVE4hJLv5afDKUUhh-123">
          <mxGeometry width="22.190000000000055" height="30" as="geometry">
            <mxRectangle width="22.190000000000055" height="30" as="alternateBounds" />
          </mxGeometry>
        </mxCell>
        <mxCell id="EhNRVE4hJLv5afDKUUhh-125" value="gender_id: uuid" style="shape=partialRectangle;connectable=0;fillColor=none;top=0;left=0;bottom=0;right=0;align=left;spacingLeft=6;overflow=hidden;" vertex="1" parent="EhNRVE4hJLv5afDKUUhh-123">
          <mxGeometry x="22.190000000000055" width="181.61999999999995" height="30" as="geometry">
            <mxRectangle width="181.61999999999995" height="30" as="alternateBounds" />
          </mxGeometry>
        </mxCell>
        <mxCell id="EhNRVE4hJLv5afDKUUhh-126" value="genders" style="shape=table;startSize=30;container=1;collapsible=1;childLayout=tableLayout;fixedRows=1;rowLines=0;fontStyle=1;align=center;resizeLast=1;html=1;" vertex="1" parent="1">
          <mxGeometry x="-1326.1899999999998" y="280" width="180" height="110" as="geometry" />
        </mxCell>
        <mxCell id="EhNRVE4hJLv5afDKUUhh-127" value="" style="shape=tableRow;horizontal=0;startSize=0;swimlaneHead=0;swimlaneBody=0;fillColor=none;collapsible=0;dropTarget=0;points=[[0,0.5],[1,0.5]];portConstraint=eastwest;top=0;left=0;right=0;bottom=1;" vertex="1" parent="EhNRVE4hJLv5afDKUUhh-126">
          <mxGeometry y="30" width="180" height="30" as="geometry" />
        </mxCell>
        <mxCell id="EhNRVE4hJLv5afDKUUhh-128" value="PK" style="shape=partialRectangle;connectable=0;fillColor=none;top=0;left=0;bottom=0;right=0;fontStyle=1;overflow=hidden;whiteSpace=wrap;html=1;" vertex="1" parent="EhNRVE4hJLv5afDKUUhh-127">
          <mxGeometry width="30" height="30" as="geometry">
            <mxRectangle width="30" height="30" as="alternateBounds" />
          </mxGeometry>
        </mxCell>
        <mxCell id="EhNRVE4hJLv5afDKUUhh-129" value="id" style="shape=partialRectangle;connectable=0;fillColor=none;top=0;left=0;bottom=0;right=0;align=left;spacingLeft=6;fontStyle=5;overflow=hidden;whiteSpace=wrap;html=1;" vertex="1" parent="EhNRVE4hJLv5afDKUUhh-127">
          <mxGeometry x="30" width="150" height="30" as="geometry">
            <mxRectangle width="150" height="30" as="alternateBounds" />
          </mxGeometry>
        </mxCell>
        <mxCell id="EhNRVE4hJLv5afDKUUhh-130" value="" style="shape=tableRow;horizontal=0;startSize=0;swimlaneHead=0;swimlaneBody=0;fillColor=none;collapsible=0;dropTarget=0;points=[[0,0.5],[1,0.5]];portConstraint=eastwest;top=0;left=0;right=0;bottom=0;" vertex="1" parent="EhNRVE4hJLv5afDKUUhh-126">
          <mxGeometry y="60" width="180" height="20" as="geometry" />
        </mxCell>
        <mxCell id="EhNRVE4hJLv5afDKUUhh-131" value="" style="shape=partialRectangle;connectable=0;fillColor=none;top=0;left=0;bottom=0;right=0;editable=1;overflow=hidden;whiteSpace=wrap;html=1;" vertex="1" parent="EhNRVE4hJLv5afDKUUhh-130">
          <mxGeometry width="30" height="20" as="geometry">
            <mxRectangle width="30" height="20" as="alternateBounds" />
          </mxGeometry>
        </mxCell>
        <mxCell id="EhNRVE4hJLv5afDKUUhh-132" value="name" style="shape=partialRectangle;connectable=0;fillColor=none;top=0;left=0;bottom=0;right=0;align=left;spacingLeft=6;overflow=hidden;whiteSpace=wrap;html=1;" vertex="1" parent="EhNRVE4hJLv5afDKUUhh-130">
          <mxGeometry x="30" width="150" height="20" as="geometry">
            <mxRectangle width="150" height="20" as="alternateBounds" />
          </mxGeometry>
        </mxCell>
        <mxCell id="EhNRVE4hJLv5afDKUUhh-136" value="" style="shape=tableRow;horizontal=0;startSize=0;swimlaneHead=0;swimlaneBody=0;fillColor=none;collapsible=0;dropTarget=0;points=[[0,0.5],[1,0.5]];portConstraint=eastwest;top=0;left=0;right=0;bottom=0;" vertex="1" parent="EhNRVE4hJLv5afDKUUhh-126">
          <mxGeometry y="80" width="180" height="30" as="geometry" />
        </mxCell>
        <mxCell id="EhNRVE4hJLv5afDKUUhh-137" value="" style="shape=partialRectangle;connectable=0;fillColor=none;top=0;left=0;bottom=0;right=0;editable=1;overflow=hidden;whiteSpace=wrap;html=1;" vertex="1" parent="EhNRVE4hJLv5afDKUUhh-136">
          <mxGeometry width="30" height="30" as="geometry">
            <mxRectangle width="30" height="30" as="alternateBounds" />
          </mxGeometry>
        </mxCell>
        <mxCell id="EhNRVE4hJLv5afDKUUhh-138" value="code" style="shape=partialRectangle;connectable=0;fillColor=none;top=0;left=0;bottom=0;right=0;align=left;spacingLeft=6;overflow=hidden;whiteSpace=wrap;html=1;" vertex="1" parent="EhNRVE4hJLv5afDKUUhh-136">
          <mxGeometry x="30" width="150" height="30" as="geometry">
            <mxRectangle width="150" height="30" as="alternateBounds" />
          </mxGeometry>
        </mxCell>
        <mxCell id="EhNRVE4hJLv5afDKUUhh-145" style="edgeStyle=orthogonalEdgeStyle;rounded=0;orthogonalLoop=1;jettySize=auto;html=1;" edge="1" parent="1" source="EhNRVE4hJLv5afDKUUhh-107" target="EhNRVE4hJLv5afDKUUhh-142">
          <mxGeometry relative="1" as="geometry" />
        </mxCell>
        <mxCell id="EhNRVE4hJLv5afDKUUhh-146" value="doctor_login_data" style="shape=table;startSize=30;container=1;collapsible=1;childLayout=tableLayout;fixedRows=1;rowLines=0;fontStyle=1;align=center;resizeLast=1;html=1;" vertex="1" parent="1">
          <mxGeometry x="-827" y="40" width="180" height="120" as="geometry" />
        </mxCell>
        <mxCell id="EhNRVE4hJLv5afDKUUhh-147" value="" style="shape=tableRow;horizontal=0;startSize=0;swimlaneHead=0;swimlaneBody=0;fillColor=none;collapsible=0;dropTarget=0;points=[[0,0.5],[1,0.5]];portConstraint=eastwest;top=0;left=0;right=0;bottom=1;" vertex="1" parent="EhNRVE4hJLv5afDKUUhh-146">
          <mxGeometry y="30" width="180" height="30" as="geometry" />
        </mxCell>
        <mxCell id="EhNRVE4hJLv5afDKUUhh-148" value="PK" style="shape=partialRectangle;connectable=0;fillColor=none;top=0;left=0;bottom=0;right=0;fontStyle=1;overflow=hidden;whiteSpace=wrap;html=1;" vertex="1" parent="EhNRVE4hJLv5afDKUUhh-147">
          <mxGeometry width="30" height="30" as="geometry">
            <mxRectangle width="30" height="30" as="alternateBounds" />
          </mxGeometry>
        </mxCell>
        <mxCell id="EhNRVE4hJLv5afDKUUhh-149" value="doctor_id" style="shape=partialRectangle;connectable=0;fillColor=none;top=0;left=0;bottom=0;right=0;align=left;spacingLeft=6;fontStyle=5;overflow=hidden;whiteSpace=wrap;html=1;" vertex="1" parent="EhNRVE4hJLv5afDKUUhh-147">
          <mxGeometry x="30" width="150" height="30" as="geometry">
            <mxRectangle width="150" height="30" as="alternateBounds" />
          </mxGeometry>
        </mxCell>
        <mxCell id="EhNRVE4hJLv5afDKUUhh-150" value="" style="shape=tableRow;horizontal=0;startSize=0;swimlaneHead=0;swimlaneBody=0;fillColor=none;collapsible=0;dropTarget=0;points=[[0,0.5],[1,0.5]];portConstraint=eastwest;top=0;left=0;right=0;bottom=0;" vertex="1" parent="EhNRVE4hJLv5afDKUUhh-146">
          <mxGeometry y="60" width="180" height="30" as="geometry" />
        </mxCell>
        <mxCell id="EhNRVE4hJLv5afDKUUhh-151" value="" style="shape=partialRectangle;connectable=0;fillColor=none;top=0;left=0;bottom=0;right=0;editable=1;overflow=hidden;whiteSpace=wrap;html=1;" vertex="1" parent="EhNRVE4hJLv5afDKUUhh-150">
          <mxGeometry width="30" height="30" as="geometry">
            <mxRectangle width="30" height="30" as="alternateBounds" />
          </mxGeometry>
        </mxCell>
        <mxCell id="EhNRVE4hJLv5afDKUUhh-152" value="email_address: varchar" style="shape=partialRectangle;connectable=0;fillColor=none;top=0;left=0;bottom=0;right=0;align=left;spacingLeft=6;overflow=hidden;whiteSpace=wrap;html=1;" vertex="1" parent="EhNRVE4hJLv5afDKUUhh-150">
          <mxGeometry x="30" width="150" height="30" as="geometry">
            <mxRectangle width="150" height="30" as="alternateBounds" />
          </mxGeometry>
        </mxCell>
        <mxCell id="EhNRVE4hJLv5afDKUUhh-153" value="" style="shape=tableRow;horizontal=0;startSize=0;swimlaneHead=0;swimlaneBody=0;fillColor=none;collapsible=0;dropTarget=0;points=[[0,0.5],[1,0.5]];portConstraint=eastwest;top=0;left=0;right=0;bottom=0;" vertex="1" parent="EhNRVE4hJLv5afDKUUhh-146">
          <mxGeometry y="90" width="180" height="30" as="geometry" />
        </mxCell>
        <mxCell id="EhNRVE4hJLv5afDKUUhh-154" value="" style="shape=partialRectangle;connectable=0;fillColor=none;top=0;left=0;bottom=0;right=0;editable=1;overflow=hidden;whiteSpace=wrap;html=1;" vertex="1" parent="EhNRVE4hJLv5afDKUUhh-153">
          <mxGeometry width="30" height="30" as="geometry">
            <mxRectangle width="30" height="30" as="alternateBounds" />
          </mxGeometry>
        </mxCell>
        <mxCell id="EhNRVE4hJLv5afDKUUhh-155" value="password: varchar" style="shape=partialRectangle;connectable=0;fillColor=none;top=0;left=0;bottom=0;right=0;align=left;spacingLeft=6;overflow=hidden;whiteSpace=wrap;html=1;" vertex="1" parent="EhNRVE4hJLv5afDKUUhh-153">
          <mxGeometry x="30" width="150" height="30" as="geometry">
            <mxRectangle width="150" height="30" as="alternateBounds" />
          </mxGeometry>
        </mxCell>
        <mxCell id="EhNRVE4hJLv5afDKUUhh-159" style="edgeStyle=orthogonalEdgeStyle;rounded=0;orthogonalLoop=1;jettySize=auto;html=1;" edge="1" parent="1" source="EhNRVE4hJLv5afDKUUhh-147" target="EhNRVE4hJLv5afDKUUhh-156">
          <mxGeometry relative="1" as="geometry" />
        </mxCell>
        <mxCell id="EhNRVE4hJLv5afDKUUhh-170" style="edgeStyle=orthogonalEdgeStyle;rounded=0;orthogonalLoop=1;jettySize=auto;html=1;" edge="1" parent="1" source="EhNRVE4hJLv5afDKUUhh-2" target="EhNRVE4hJLv5afDKUUhh-160">
          <mxGeometry relative="1" as="geometry" />
        </mxCell>
        <mxCell id="EhNRVE4hJLv5afDKUUhh-171" value="review" style="shape=table;startSize=30;container=1;collapsible=1;childLayout=tableLayout;fixedRows=1;rowLines=0;fontStyle=1;align=center;resizeLast=1;html=1;" vertex="1" parent="1">
          <mxGeometry x="-827" y="260" width="180" height="240" as="geometry" />
        </mxCell>
        <mxCell id="EhNRVE4hJLv5afDKUUhh-172" value="" style="shape=tableRow;horizontal=0;startSize=0;swimlaneHead=0;swimlaneBody=0;fillColor=none;collapsible=0;dropTarget=0;points=[[0,0.5],[1,0.5]];portConstraint=eastwest;top=0;left=0;right=0;bottom=1;" vertex="1" parent="EhNRVE4hJLv5afDKUUhh-171">
          <mxGeometry y="30" width="180" height="30" as="geometry" />
        </mxCell>
        <mxCell id="EhNRVE4hJLv5afDKUUhh-173" value="PK" style="shape=partialRectangle;connectable=0;fillColor=none;top=0;left=0;bottom=0;right=0;fontStyle=1;overflow=hidden;whiteSpace=wrap;html=1;" vertex="1" parent="EhNRVE4hJLv5afDKUUhh-172">
          <mxGeometry width="30" height="30" as="geometry">
            <mxRectangle width="30" height="30" as="alternateBounds" />
          </mxGeometry>
        </mxCell>
        <mxCell id="EhNRVE4hJLv5afDKUUhh-174" value="id:uuid" style="shape=partialRectangle;connectable=0;fillColor=none;top=0;left=0;bottom=0;right=0;align=left;spacingLeft=6;fontStyle=5;overflow=hidden;whiteSpace=wrap;html=1;" vertex="1" parent="EhNRVE4hJLv5afDKUUhh-172">
          <mxGeometry x="30" width="150" height="30" as="geometry">
            <mxRectangle width="150" height="30" as="alternateBounds" />
          </mxGeometry>
        </mxCell>
        <mxCell id="EhNRVE4hJLv5afDKUUhh-175" value="" style="shape=tableRow;horizontal=0;startSize=0;swimlaneHead=0;swimlaneBody=0;fillColor=none;collapsible=0;dropTarget=0;points=[[0,0.5],[1,0.5]];portConstraint=eastwest;top=0;left=0;right=0;bottom=0;" vertex="1" parent="EhNRVE4hJLv5afDKUUhh-171">
          <mxGeometry y="60" width="180" height="30" as="geometry" />
        </mxCell>
        <mxCell id="EhNRVE4hJLv5afDKUUhh-176" value="FK" style="shape=partialRectangle;connectable=0;fillColor=none;top=0;left=0;bottom=0;right=0;editable=1;overflow=hidden;whiteSpace=wrap;html=1;" vertex="1" parent="EhNRVE4hJLv5afDKUUhh-175">
          <mxGeometry width="30" height="30" as="geometry">
            <mxRectangle width="30" height="30" as="alternateBounds" />
          </mxGeometry>
        </mxCell>
        <mxCell id="EhNRVE4hJLv5afDKUUhh-177" value="doctor_id: uuid" style="shape=partialRectangle;connectable=0;fillColor=none;top=0;left=0;bottom=0;right=0;align=left;spacingLeft=6;overflow=hidden;whiteSpace=wrap;html=1;" vertex="1" parent="EhNRVE4hJLv5afDKUUhh-175">
          <mxGeometry x="30" width="150" height="30" as="geometry">
            <mxRectangle width="150" height="30" as="alternateBounds" />
          </mxGeometry>
        </mxCell>
        <mxCell id="EhNRVE4hJLv5afDKUUhh-178" value="" style="shape=tableRow;horizontal=0;startSize=0;swimlaneHead=0;swimlaneBody=0;fillColor=none;collapsible=0;dropTarget=0;points=[[0,0.5],[1,0.5]];portConstraint=eastwest;top=0;left=0;right=0;bottom=0;" vertex="1" parent="EhNRVE4hJLv5afDKUUhh-171">
          <mxGeometry y="90" width="180" height="30" as="geometry" />
        </mxCell>
        <mxCell id="EhNRVE4hJLv5afDKUUhh-179" value="FK" style="shape=partialRectangle;connectable=0;fillColor=none;top=0;left=0;bottom=0;right=0;editable=1;overflow=hidden;whiteSpace=wrap;html=1;" vertex="1" parent="EhNRVE4hJLv5afDKUUhh-178">
          <mxGeometry width="30" height="30" as="geometry">
            <mxRectangle width="30" height="30" as="alternateBounds" />
          </mxGeometry>
        </mxCell>
        <mxCell id="EhNRVE4hJLv5afDKUUhh-180" value="patient_id: uuid" style="shape=partialRectangle;connectable=0;fillColor=none;top=0;left=0;bottom=0;right=0;align=left;spacingLeft=6;overflow=hidden;whiteSpace=wrap;html=1;" vertex="1" parent="EhNRVE4hJLv5afDKUUhh-178">
          <mxGeometry x="30" width="150" height="30" as="geometry">
            <mxRectangle width="150" height="30" as="alternateBounds" />
          </mxGeometry>
        </mxCell>
        <mxCell id="EhNRVE4hJLv5afDKUUhh-190" value="" style="shape=tableRow;horizontal=0;startSize=0;swimlaneHead=0;swimlaneBody=0;fillColor=none;collapsible=0;dropTarget=0;points=[[0,0.5],[1,0.5]];portConstraint=eastwest;top=0;left=0;right=0;bottom=0;" vertex="1" parent="EhNRVE4hJLv5afDKUUhh-171">
          <mxGeometry y="120" width="180" height="30" as="geometry" />
        </mxCell>
        <mxCell id="EhNRVE4hJLv5afDKUUhh-191" value="" style="shape=partialRectangle;connectable=0;fillColor=none;top=0;left=0;bottom=0;right=0;editable=1;overflow=hidden;" vertex="1" parent="EhNRVE4hJLv5afDKUUhh-190">
          <mxGeometry width="30" height="30" as="geometry">
            <mxRectangle width="30" height="30" as="alternateBounds" />
          </mxGeometry>
        </mxCell>
        <mxCell id="EhNRVE4hJLv5afDKUUhh-192" value="review_title: varchar" style="shape=partialRectangle;connectable=0;fillColor=none;top=0;left=0;bottom=0;right=0;align=left;spacingLeft=6;overflow=hidden;" vertex="1" parent="EhNRVE4hJLv5afDKUUhh-190">
          <mxGeometry x="30" width="150" height="30" as="geometry">
            <mxRectangle width="150" height="30" as="alternateBounds" />
          </mxGeometry>
        </mxCell>
        <mxCell id="EhNRVE4hJLv5afDKUUhh-181" value="" style="shape=tableRow;horizontal=0;startSize=0;swimlaneHead=0;swimlaneBody=0;fillColor=none;collapsible=0;dropTarget=0;points=[[0,0.5],[1,0.5]];portConstraint=eastwest;top=0;left=0;right=0;bottom=0;" vertex="1" parent="EhNRVE4hJLv5afDKUUhh-171">
          <mxGeometry y="150" width="180" height="30" as="geometry" />
        </mxCell>
        <mxCell id="EhNRVE4hJLv5afDKUUhh-182" value="" style="shape=partialRectangle;connectable=0;fillColor=none;top=0;left=0;bottom=0;right=0;editable=1;overflow=hidden;whiteSpace=wrap;html=1;" vertex="1" parent="EhNRVE4hJLv5afDKUUhh-181">
          <mxGeometry width="30" height="30" as="geometry">
            <mxRectangle width="30" height="30" as="alternateBounds" />
          </mxGeometry>
        </mxCell>
        <mxCell id="EhNRVE4hJLv5afDKUUhh-183" value="review_value: float" style="shape=partialRectangle;connectable=0;fillColor=none;top=0;left=0;bottom=0;right=0;align=left;spacingLeft=6;overflow=hidden;whiteSpace=wrap;html=1;" vertex="1" parent="EhNRVE4hJLv5afDKUUhh-181">
          <mxGeometry x="30" width="150" height="30" as="geometry">
            <mxRectangle width="150" height="30" as="alternateBounds" />
          </mxGeometry>
        </mxCell>
        <mxCell id="EhNRVE4hJLv5afDKUUhh-184" value="" style="shape=tableRow;horizontal=0;startSize=0;swimlaneHead=0;swimlaneBody=0;fillColor=none;collapsible=0;dropTarget=0;points=[[0,0.5],[1,0.5]];portConstraint=eastwest;top=0;left=0;right=0;bottom=0;" vertex="1" parent="EhNRVE4hJLv5afDKUUhh-171">
          <mxGeometry y="180" width="180" height="30" as="geometry" />
        </mxCell>
        <mxCell id="EhNRVE4hJLv5afDKUUhh-185" value="" style="shape=partialRectangle;connectable=0;fillColor=none;top=0;left=0;bottom=0;right=0;editable=1;overflow=hidden;" vertex="1" parent="EhNRVE4hJLv5afDKUUhh-184">
          <mxGeometry width="30" height="30" as="geometry">
            <mxRectangle width="30" height="30" as="alternateBounds" />
          </mxGeometry>
        </mxCell>
        <mxCell id="EhNRVE4hJLv5afDKUUhh-186" value="review_content: varchar" style="shape=partialRectangle;connectable=0;fillColor=none;top=0;left=0;bottom=0;right=0;align=left;spacingLeft=6;overflow=hidden;" vertex="1" parent="EhNRVE4hJLv5afDKUUhh-184">
          <mxGeometry x="30" width="150" height="30" as="geometry">
            <mxRectangle width="150" height="30" as="alternateBounds" />
          </mxGeometry>
        </mxCell>
        <mxCell id="EhNRVE4hJLv5afDKUUhh-187" value="" style="shape=tableRow;horizontal=0;startSize=0;swimlaneHead=0;swimlaneBody=0;fillColor=none;collapsible=0;dropTarget=0;points=[[0,0.5],[1,0.5]];portConstraint=eastwest;top=0;left=0;right=0;bottom=0;" vertex="1" parent="EhNRVE4hJLv5afDKUUhh-171">
          <mxGeometry y="210" width="180" height="30" as="geometry" />
        </mxCell>
        <mxCell id="EhNRVE4hJLv5afDKUUhh-188" value="" style="shape=partialRectangle;connectable=0;fillColor=none;top=0;left=0;bottom=0;right=0;editable=1;overflow=hidden;" vertex="1" parent="EhNRVE4hJLv5afDKUUhh-187">
          <mxGeometry width="30" height="30" as="geometry">
            <mxRectangle width="30" height="30" as="alternateBounds" />
          </mxGeometry>
        </mxCell>
        <mxCell id="EhNRVE4hJLv5afDKUUhh-189" value="date_created: Timestamp" style="shape=partialRectangle;connectable=0;fillColor=none;top=0;left=0;bottom=0;right=0;align=left;spacingLeft=6;overflow=hidden;" vertex="1" parent="EhNRVE4hJLv5afDKUUhh-187">
          <mxGeometry x="30" width="150" height="30" as="geometry">
            <mxRectangle width="150" height="30" as="alternateBounds" />
          </mxGeometry>
        </mxCell>
        <mxCell id="EhNRVE4hJLv5afDKUUhh-206" value="patient_review" style="shape=table;startSize=30;container=1;collapsible=1;childLayout=tableLayout;fixedRows=1;rowLines=0;fontStyle=1;align=center;resizeLast=1;html=1;" vertex="1" parent="1">
          <mxGeometry x="-1310" y="465" width="180" height="120" as="geometry" />
        </mxCell>
        <mxCell id="EhNRVE4hJLv5afDKUUhh-210" value="" style="shape=tableRow;horizontal=0;startSize=0;swimlaneHead=0;swimlaneBody=0;fillColor=none;collapsible=0;dropTarget=0;points=[[0,0.5],[1,0.5]];portConstraint=eastwest;top=0;left=0;right=0;bottom=0;" vertex="1" parent="EhNRVE4hJLv5afDKUUhh-206">
          <mxGeometry y="30" width="180" height="30" as="geometry" />
        </mxCell>
        <mxCell id="EhNRVE4hJLv5afDKUUhh-211" value="FK" style="shape=partialRectangle;connectable=0;fillColor=none;top=0;left=0;bottom=0;right=0;editable=1;overflow=hidden;whiteSpace=wrap;html=1;" vertex="1" parent="EhNRVE4hJLv5afDKUUhh-210">
          <mxGeometry width="30" height="30" as="geometry">
            <mxRectangle width="30" height="30" as="alternateBounds" />
          </mxGeometry>
        </mxCell>
        <mxCell id="EhNRVE4hJLv5afDKUUhh-212" value="patient_id" style="shape=partialRectangle;connectable=0;fillColor=none;top=0;left=0;bottom=0;right=0;align=left;spacingLeft=6;overflow=hidden;whiteSpace=wrap;html=1;" vertex="1" parent="EhNRVE4hJLv5afDKUUhh-210">
          <mxGeometry x="30" width="150" height="30" as="geometry">
            <mxRectangle width="150" height="30" as="alternateBounds" />
          </mxGeometry>
        </mxCell>
        <mxCell id="EhNRVE4hJLv5afDKUUhh-213" value="" style="shape=tableRow;horizontal=0;startSize=0;swimlaneHead=0;swimlaneBody=0;fillColor=none;collapsible=0;dropTarget=0;points=[[0,0.5],[1,0.5]];portConstraint=eastwest;top=0;left=0;right=0;bottom=0;" vertex="1" parent="EhNRVE4hJLv5afDKUUhh-206">
          <mxGeometry y="60" width="180" height="30" as="geometry" />
        </mxCell>
        <mxCell id="EhNRVE4hJLv5afDKUUhh-214" value="FK" style="shape=partialRectangle;connectable=0;fillColor=none;top=0;left=0;bottom=0;right=0;editable=1;overflow=hidden;whiteSpace=wrap;html=1;" vertex="1" parent="EhNRVE4hJLv5afDKUUhh-213">
          <mxGeometry width="30" height="30" as="geometry">
            <mxRectangle width="30" height="30" as="alternateBounds" />
          </mxGeometry>
        </mxCell>
        <mxCell id="EhNRVE4hJLv5afDKUUhh-215" value="review_id" style="shape=partialRectangle;connectable=0;fillColor=none;top=0;left=0;bottom=0;right=0;align=left;spacingLeft=6;overflow=hidden;whiteSpace=wrap;html=1;" vertex="1" parent="EhNRVE4hJLv5afDKUUhh-213">
          <mxGeometry x="30" width="150" height="30" as="geometry">
            <mxRectangle width="150" height="30" as="alternateBounds" />
          </mxGeometry>
        </mxCell>
        <mxCell id="EhNRVE4hJLv5afDKUUhh-216" value="" style="shape=tableRow;horizontal=0;startSize=0;swimlaneHead=0;swimlaneBody=0;fillColor=none;collapsible=0;dropTarget=0;points=[[0,0.5],[1,0.5]];portConstraint=eastwest;top=0;left=0;right=0;bottom=0;" vertex="1" parent="EhNRVE4hJLv5afDKUUhh-206">
          <mxGeometry y="90" width="180" height="30" as="geometry" />
        </mxCell>
        <mxCell id="EhNRVE4hJLv5afDKUUhh-217" value="" style="shape=partialRectangle;connectable=0;fillColor=none;top=0;left=0;bottom=0;right=0;editable=1;overflow=hidden;whiteSpace=wrap;html=1;" vertex="1" parent="EhNRVE4hJLv5afDKUUhh-216">
          <mxGeometry width="30" height="30" as="geometry">
            <mxRectangle width="30" height="30" as="alternateBounds" />
          </mxGeometry>
        </mxCell>
        <mxCell id="EhNRVE4hJLv5afDKUUhh-218" value="Row 3" style="shape=partialRectangle;connectable=0;fillColor=none;top=0;left=0;bottom=0;right=0;align=left;spacingLeft=6;overflow=hidden;whiteSpace=wrap;html=1;" vertex="1" parent="EhNRVE4hJLv5afDKUUhh-216">
          <mxGeometry x="30" width="150" height="30" as="geometry">
            <mxRectangle width="150" height="30" as="alternateBounds" />
          </mxGeometry>
        </mxCell>
        <mxCell id="EhNRVE4hJLv5afDKUUhh-219" value="doctor_review" style="shape=table;startSize=30;container=1;collapsible=1;childLayout=tableLayout;fixedRows=1;rowLines=0;fontStyle=1;align=center;resizeLast=1;html=1;spacing=2;" vertex="1" parent="1">
          <mxGeometry x="-594.28" y="220" width="180" height="70" as="geometry" />
        </mxCell>
        <mxCell id="EhNRVE4hJLv5afDKUUhh-220" value="" style="shape=tableRow;horizontal=0;startSize=0;swimlaneHead=0;swimlaneBody=0;fillColor=none;collapsible=0;dropTarget=0;points=[[0,0.5],[1,0.5]];portConstraint=eastwest;top=0;left=0;right=0;bottom=0;spacing=2;" vertex="1" parent="EhNRVE4hJLv5afDKUUhh-219">
          <mxGeometry y="30" width="180" height="20" as="geometry" />
        </mxCell>
        <mxCell id="EhNRVE4hJLv5afDKUUhh-221" value="FK" style="shape=partialRectangle;connectable=0;fillColor=none;top=0;left=0;bottom=0;right=0;editable=1;overflow=hidden;whiteSpace=wrap;html=1;spacing=2;" vertex="1" parent="EhNRVE4hJLv5afDKUUhh-220">
          <mxGeometry width="30" height="20" as="geometry">
            <mxRectangle width="30" height="20" as="alternateBounds" />
          </mxGeometry>
        </mxCell>
        <mxCell id="EhNRVE4hJLv5afDKUUhh-222" value="doctor_id:uuid" style="shape=partialRectangle;connectable=0;fillColor=none;top=0;left=0;bottom=0;right=0;align=left;spacingLeft=6;overflow=hidden;whiteSpace=wrap;html=1;spacing=2;" vertex="1" parent="EhNRVE4hJLv5afDKUUhh-220">
          <mxGeometry x="30" width="150" height="20" as="geometry">
            <mxRectangle width="150" height="20" as="alternateBounds" />
          </mxGeometry>
        </mxCell>
        <mxCell id="EhNRVE4hJLv5afDKUUhh-223" value="" style="shape=tableRow;horizontal=0;startSize=0;swimlaneHead=0;swimlaneBody=0;fillColor=none;collapsible=0;dropTarget=0;points=[[0,0.5],[1,0.5]];portConstraint=eastwest;top=0;left=0;right=0;bottom=0;spacing=2;" vertex="1" parent="EhNRVE4hJLv5afDKUUhh-219">
          <mxGeometry y="50" width="180" height="20" as="geometry" />
        </mxCell>
        <mxCell id="EhNRVE4hJLv5afDKUUhh-224" value="FK" style="shape=partialRectangle;connectable=0;fillColor=none;top=0;left=0;bottom=0;right=0;editable=1;overflow=hidden;whiteSpace=wrap;html=1;spacing=2;" vertex="1" parent="EhNRVE4hJLv5afDKUUhh-223">
          <mxGeometry width="30" height="20" as="geometry">
            <mxRectangle width="30" height="20" as="alternateBounds" />
          </mxGeometry>
        </mxCell>
        <mxCell id="EhNRVE4hJLv5afDKUUhh-225" value="review_id: uuid" style="shape=partialRectangle;connectable=0;fillColor=none;top=0;left=0;bottom=0;right=0;align=left;spacingLeft=6;overflow=hidden;whiteSpace=wrap;html=1;spacing=2;" vertex="1" parent="EhNRVE4hJLv5afDKUUhh-223">
          <mxGeometry x="30" width="150" height="20" as="geometry">
            <mxRectangle width="150" height="20" as="alternateBounds" />
          </mxGeometry>
        </mxCell>
        <mxCell id="EhNRVE4hJLv5afDKUUhh-226" style="edgeStyle=orthogonalEdgeStyle;rounded=0;orthogonalLoop=1;jettySize=auto;html=1;entryX=0;entryY=0.5;entryDx=0;entryDy=0;" edge="1" parent="1" source="EhNRVE4hJLv5afDKUUhh-147" target="EhNRVE4hJLv5afDKUUhh-220">
          <mxGeometry relative="1" as="geometry" />
        </mxCell>
        <mxCell id="EhNRVE4hJLv5afDKUUhh-227" style="edgeStyle=orthogonalEdgeStyle;rounded=0;orthogonalLoop=1;jettySize=auto;html=1;entryX=0;entryY=0.5;entryDx=0;entryDy=0;" edge="1" parent="1" source="EhNRVE4hJLv5afDKUUhh-172" target="EhNRVE4hJLv5afDKUUhh-223">
          <mxGeometry relative="1" as="geometry">
            <Array as="points">
              <mxPoint x="-620" y="305" />
              <mxPoint x="-620" y="280" />
            </Array>
          </mxGeometry>
        </mxCell>
        <mxCell id="EhNRVE4hJLv5afDKUUhh-228" style="edgeStyle=orthogonalEdgeStyle;rounded=0;orthogonalLoop=1;jettySize=auto;html=1;" edge="1" parent="1" source="EhNRVE4hJLv5afDKUUhh-147" target="EhNRVE4hJLv5afDKUUhh-175">
          <mxGeometry relative="1" as="geometry">
            <Array as="points">
              <mxPoint x="-847" y="85" />
              <mxPoint x="-847" y="335" />
            </Array>
          </mxGeometry>
        </mxCell>
        <mxCell id="EhNRVE4hJLv5afDKUUhh-229" style="edgeStyle=orthogonalEdgeStyle;rounded=0;orthogonalLoop=1;jettySize=auto;html=1;entryX=0;entryY=0.5;entryDx=0;entryDy=0;" edge="1" parent="1" source="EhNRVE4hJLv5afDKUUhh-127" target="EhNRVE4hJLv5afDKUUhh-164">
          <mxGeometry relative="1" as="geometry" />
        </mxCell>
        <mxCell id="EhNRVE4hJLv5afDKUUhh-230" style="edgeStyle=orthogonalEdgeStyle;rounded=0;orthogonalLoop=1;jettySize=auto;html=1;entryX=1;entryY=0.5;entryDx=0;entryDy=0;" edge="1" parent="1" source="EhNRVE4hJLv5afDKUUhh-127" target="EhNRVE4hJLv5afDKUUhh-123">
          <mxGeometry relative="1" as="geometry" />
        </mxCell>
        <mxCell id="EhNRVE4hJLv5afDKUUhh-233" style="edgeStyle=orthogonalEdgeStyle;rounded=0;orthogonalLoop=1;jettySize=auto;html=1;entryX=0;entryY=0.5;entryDx=0;entryDy=0;" edge="1" parent="1" source="EhNRVE4hJLv5afDKUUhh-142" target="EhNRVE4hJLv5afDKUUhh-178">
          <mxGeometry relative="1" as="geometry">
            <Array as="points">
              <mxPoint x="-1360" y="185" />
              <mxPoint x="-1360" y="400" />
              <mxPoint x="-850" y="400" />
              <mxPoint x="-850" y="365" />
            </Array>
          </mxGeometry>
        </mxCell>
        <mxCell id="EhNRVE4hJLv5afDKUUhh-234" style="edgeStyle=orthogonalEdgeStyle;rounded=0;orthogonalLoop=1;jettySize=auto;html=1;entryX=1;entryY=0.5;entryDx=0;entryDy=0;" edge="1" parent="1" source="EhNRVE4hJLv5afDKUUhh-172" target="EhNRVE4hJLv5afDKUUhh-213">
          <mxGeometry relative="1" as="geometry">
            <Array as="points">
              <mxPoint x="-880" y="305" />
              <mxPoint x="-880" y="540" />
            </Array>
          </mxGeometry>
        </mxCell>
        <mxCell id="EhNRVE4hJLv5afDKUUhh-235" style="edgeStyle=orthogonalEdgeStyle;rounded=0;orthogonalLoop=1;jettySize=auto;html=1;" edge="1" parent="1" source="EhNRVE4hJLv5afDKUUhh-142" target="EhNRVE4hJLv5afDKUUhh-210">
          <mxGeometry relative="1" as="geometry" />
        </mxCell>
        <mxCell id="EhNRVE4hJLv5afDKUUhh-236" value="specialization" style="shape=table;startSize=30;container=1;collapsible=1;childLayout=tableLayout;fixedRows=1;rowLines=0;fontStyle=1;align=center;resizeLast=1;html=1;" vertex="1" parent="1">
          <mxGeometry x="-1600" y="380" width="180" height="150" as="geometry" />
        </mxCell>
        <mxCell id="EhNRVE4hJLv5afDKUUhh-237" value="" style="shape=tableRow;horizontal=0;startSize=0;swimlaneHead=0;swimlaneBody=0;fillColor=none;collapsible=0;dropTarget=0;points=[[0,0.5],[1,0.5]];portConstraint=eastwest;top=0;left=0;right=0;bottom=1;" vertex="1" parent="EhNRVE4hJLv5afDKUUhh-236">
          <mxGeometry y="30" width="180" height="30" as="geometry" />
        </mxCell>
        <mxCell id="EhNRVE4hJLv5afDKUUhh-238" value="PK" style="shape=partialRectangle;connectable=0;fillColor=none;top=0;left=0;bottom=0;right=0;fontStyle=1;overflow=hidden;whiteSpace=wrap;html=1;" vertex="1" parent="EhNRVE4hJLv5afDKUUhh-237">
          <mxGeometry width="30" height="30" as="geometry">
            <mxRectangle width="30" height="30" as="alternateBounds" />
          </mxGeometry>
        </mxCell>
        <mxCell id="EhNRVE4hJLv5afDKUUhh-239" value="id: uuid" style="shape=partialRectangle;connectable=0;fillColor=none;top=0;left=0;bottom=0;right=0;align=left;spacingLeft=6;fontStyle=5;overflow=hidden;whiteSpace=wrap;html=1;" vertex="1" parent="EhNRVE4hJLv5afDKUUhh-237">
          <mxGeometry x="30" width="150" height="30" as="geometry">
            <mxRectangle width="150" height="30" as="alternateBounds" />
          </mxGeometry>
        </mxCell>
        <mxCell id="EhNRVE4hJLv5afDKUUhh-240" value="" style="shape=tableRow;horizontal=0;startSize=0;swimlaneHead=0;swimlaneBody=0;fillColor=none;collapsible=0;dropTarget=0;points=[[0,0.5],[1,0.5]];portConstraint=eastwest;top=0;left=0;right=0;bottom=0;" vertex="1" parent="EhNRVE4hJLv5afDKUUhh-236">
          <mxGeometry y="60" width="180" height="30" as="geometry" />
        </mxCell>
        <mxCell id="EhNRVE4hJLv5afDKUUhh-241" value="" style="shape=partialRectangle;connectable=0;fillColor=none;top=0;left=0;bottom=0;right=0;editable=1;overflow=hidden;whiteSpace=wrap;html=1;" vertex="1" parent="EhNRVE4hJLv5afDKUUhh-240">
          <mxGeometry width="30" height="30" as="geometry">
            <mxRectangle width="30" height="30" as="alternateBounds" />
          </mxGeometry>
        </mxCell>
        <mxCell id="EhNRVE4hJLv5afDKUUhh-242" value="name" style="shape=partialRectangle;connectable=0;fillColor=none;top=0;left=0;bottom=0;right=0;align=left;spacingLeft=6;overflow=hidden;whiteSpace=wrap;html=1;" vertex="1" parent="EhNRVE4hJLv5afDKUUhh-240">
          <mxGeometry x="30" width="150" height="30" as="geometry">
            <mxRectangle width="150" height="30" as="alternateBounds" />
          </mxGeometry>
        </mxCell>
        <mxCell id="EhNRVE4hJLv5afDKUUhh-243" value="" style="shape=tableRow;horizontal=0;startSize=0;swimlaneHead=0;swimlaneBody=0;fillColor=none;collapsible=0;dropTarget=0;points=[[0,0.5],[1,0.5]];portConstraint=eastwest;top=0;left=0;right=0;bottom=0;" vertex="1" parent="EhNRVE4hJLv5afDKUUhh-236">
          <mxGeometry y="90" width="180" height="30" as="geometry" />
        </mxCell>
        <mxCell id="EhNRVE4hJLv5afDKUUhh-244" value="" style="shape=partialRectangle;connectable=0;fillColor=none;top=0;left=0;bottom=0;right=0;editable=1;overflow=hidden;whiteSpace=wrap;html=1;" vertex="1" parent="EhNRVE4hJLv5afDKUUhh-243">
          <mxGeometry width="30" height="30" as="geometry">
            <mxRectangle width="30" height="30" as="alternateBounds" />
          </mxGeometry>
        </mxCell>
        <mxCell id="EhNRVE4hJLv5afDKUUhh-245" value="description" style="shape=partialRectangle;connectable=0;fillColor=none;top=0;left=0;bottom=0;right=0;align=left;spacingLeft=6;overflow=hidden;whiteSpace=wrap;html=1;" vertex="1" parent="EhNRVE4hJLv5afDKUUhh-243">
          <mxGeometry x="30" width="150" height="30" as="geometry">
            <mxRectangle width="150" height="30" as="alternateBounds" />
          </mxGeometry>
        </mxCell>
        <mxCell id="EhNRVE4hJLv5afDKUUhh-246" value="" style="shape=tableRow;horizontal=0;startSize=0;swimlaneHead=0;swimlaneBody=0;fillColor=none;collapsible=0;dropTarget=0;points=[[0,0.5],[1,0.5]];portConstraint=eastwest;top=0;left=0;right=0;bottom=0;" vertex="1" parent="EhNRVE4hJLv5afDKUUhh-236">
          <mxGeometry y="120" width="180" height="30" as="geometry" />
        </mxCell>
        <mxCell id="EhNRVE4hJLv5afDKUUhh-247" value="" style="shape=partialRectangle;connectable=0;fillColor=none;top=0;left=0;bottom=0;right=0;editable=1;overflow=hidden;whiteSpace=wrap;html=1;" vertex="1" parent="EhNRVE4hJLv5afDKUUhh-246">
          <mxGeometry width="30" height="30" as="geometry">
            <mxRectangle width="30" height="30" as="alternateBounds" />
          </mxGeometry>
        </mxCell>
        <mxCell id="EhNRVE4hJLv5afDKUUhh-248" value="title" style="shape=partialRectangle;connectable=0;fillColor=none;top=0;left=0;bottom=0;right=0;align=left;spacingLeft=6;overflow=hidden;whiteSpace=wrap;html=1;" vertex="1" parent="EhNRVE4hJLv5afDKUUhh-246">
          <mxGeometry x="30" width="150" height="30" as="geometry">
            <mxRectangle width="150" height="30" as="alternateBounds" />
          </mxGeometry>
        </mxCell>
        <mxCell id="EhNRVE4hJLv5afDKUUhh-249" style="edgeStyle=orthogonalEdgeStyle;rounded=0;orthogonalLoop=1;jettySize=auto;html=1;entryX=0;entryY=0.5;entryDx=0;entryDy=0;" edge="1" parent="1" source="EhNRVE4hJLv5afDKUUhh-237" target="Q81MRmjj6C1oXA7TaWA5-44">
          <mxGeometry relative="1" as="geometry">
            <Array as="points">
              <mxPoint x="-1130" y="420" />
              <mxPoint x="-1130" y="200" />
            </Array>
          </mxGeometry>
        </mxCell>
        <mxCell id="EhNRVE4hJLv5afDKUUhh-253" style="edgeStyle=orthogonalEdgeStyle;rounded=0;orthogonalLoop=1;jettySize=auto;html=1;" edge="1" parent="1" source="EhNRVE4hJLv5afDKUUhh-156" target="EhNRVE4hJLv5afDKUUhh-30">
          <mxGeometry relative="1" as="geometry">
            <Array as="points">
              <mxPoint x="-866" y="85" />
              <mxPoint x="-866" y="350" />
            </Array>
          </mxGeometry>
        </mxCell>
        <mxCell id="EhNRVE4hJLv5afDKUUhh-254" style="edgeStyle=orthogonalEdgeStyle;rounded=0;orthogonalLoop=1;jettySize=auto;html=1;" edge="1" parent="1" source="Q81MRmjj6C1oXA7TaWA5-92" target="EhNRVE4hJLv5afDKUUhh-68">
          <mxGeometry relative="1" as="geometry">
            <Array as="points">
              <mxPoint x="-360" y="360" />
              <mxPoint x="-360" y="560" />
              <mxPoint x="-988" y="560" />
            </Array>
          </mxGeometry>
        </mxCell>
        <mxCell id="EhNRVE4hJLv5afDKUUhh-256" style="edgeStyle=orthogonalEdgeStyle;rounded=0;orthogonalLoop=1;jettySize=auto;html=1;entryX=1;entryY=0.5;entryDx=0;entryDy=0;" edge="1" parent="1" source="Q81MRmjj6C1oXA7TaWA5-92" target="Q81MRmjj6C1oXA7TaWA5-57">
          <mxGeometry relative="1" as="geometry">
            <Array as="points">
              <mxPoint x="-360" y="360" />
              <mxPoint x="-360" y="120" />
            </Array>
          </mxGeometry>
        </mxCell>
      </root>
    </mxGraphModel>
  </diagram>
</mxfile>
